<svg width="74" height="73" viewBox="0 0 74 73" fill="none" xmlns="http://www.w3.org/2000/svg">
<path d="M66 36.2891C66 43.9803 62.9447 51.3566 57.5061 56.7952C52.0675 62.2337 44.6913 65.2891 37 65.2891C29.3087 65.2891 21.9325 62.2337 16.4939 56.7952C11.0553 51.3566 8 43.9803 8 36.2891C8 28.5978 11.0553 21.2215 16.4939 15.783C21.9325 10.3444 29.3087 7.28906 37 7.28906C39.755 7.28906 42.4375 7.68781 44.975 8.41281L50.6663 2.72156C46.4613 0.981563 41.8575 0.0390625 37 0.0390625C32.2396 0.0390625 27.5258 0.976697 23.1277 2.79843C18.7297 4.62016 14.7335 7.29032 11.3674 10.6564C4.56919 17.4546 0.75 26.675 0.75 36.2891C0.75 45.9032 4.56919 55.1235 11.3674 61.9217C14.7335 65.2878 18.7297 67.958 23.1277 69.7797C27.5258 71.6014 32.2396 72.5391 37 72.5391C46.6141 72.5391 55.8344 68.7199 62.6326 61.9217C69.4308 55.1235 73.25 45.9032 73.25 36.2891M22.1737 29.3291L17.0625 34.4766L33.375 50.7891L69.625 14.5391L64.5138 9.39156L33.375 40.5303L22.1737 29.3291Z" fill="#F9F9FA"/>
</svg>
