<svg width="40" height="41" viewBox="0 0 40 41" fill="none" xmlns="http://www.w3.org/2000/svg">
<path d="M6.5625 3.9375L5.85875 4.60125L4.10125 6.35875L3.4375 7.0625L3.945 7.8825L6.5625 12.2575L6.91375 12.8825H10.5875L15.5875 17.8438C11.12 22.3312 5.43625 28.0338 5.23625 28.235C3.2775 30.1925 3.27375 33.4 5.27375 35.2663C7.2275 37.1937 10.4113 37.2438 12.2675 35.2663L12.305 35.2262L20 27.4925L27.735 35.265L27.8513 35.3438C29.8138 37.1937 32.935 37.2188 34.7663 35.265V35.2275H34.8038C36.7188 33.2687 36.7388 30.085 34.7663 28.2337L34.7263 28.1962L28.2038 21.7113C32.5925 21.3013 36.03 17.595 36.0938 13.1175H36.1325C36.1375 13.0925 36.1325 13.0638 36.1325 13.0387V13C36.255 11.555 35.9425 10.1725 35.195 8.97625L34.3375 7.65L28.5163 13.47L26.7588 11.6337L32.6963 5.69625L30.9775 4.99375C29.8811 4.51143 28.6977 4.25833 27.5 4.25C22.695 4.25 18.75 8.195 18.75 13C18.75 13.5225 18.8625 13.9762 18.945 14.445C18.3988 14.9925 17.9888 15.4412 17.3438 16.0863L12.3825 11.125V7.41375L11.7575 7.0625L7.3825 4.445L6.5625 3.9375ZM27.5 6.75C27.675 6.75 27.7975 6.8525 27.9688 6.8675L23.2425 11.5938L24.1013 12.4925L27.6175 16.125L28.4763 17.0238L33.4375 12.0625C33.4625 12.35 33.6675 12.56 33.6325 12.8825V13C33.6325 16.4425 30.825 19.25 27.3825 19.25C26.9238 19.25 26.3675 19.1425 25.7425 19.015L25.0775 18.8988L24.6088 19.3675L10.5087 33.5075H10.4688V33.5475C9.58125 34.5187 8.0275 34.5425 6.9925 33.5075V33.4688H6.9525C5.98125 32.5812 5.9575 31.0275 6.9925 29.9925C7.46625 29.5175 16.64 20.265 21.1325 15.7738L21.6413 15.2662L21.445 14.5625C21.3264 14.0498 21.261 13.5262 21.25 13C21.25 9.5575 24.0575 6.75 27.5 6.75ZM6.9525 7.0625L9.8825 8.86V10.11L9.61 10.3825H8.36L6.5625 7.45375L6.9525 7.0625ZM25.2338 22.2575L33.0088 29.9925V30.0312H33.0463C34.0188 30.9188 34.0425 32.4725 33.0088 33.5075H32.9688V33.5475C32.0813 34.5187 30.5275 34.5425 29.4925 33.5075L21.7575 25.735L25.2338 22.2575Z" fill="#475569"/>
</svg>
