<svg width="40" height="41" viewBox="0 0 40 41" fill="none" xmlns="http://www.w3.org/2000/svg">
<path d="M23.9267 4.82482C23.9618 4.78059 24.0056 4.74398 24.0554 4.7172C24.1051 4.69042 24.1598 4.67404 24.2161 4.66905C24.2723 4.66406 24.329 4.67057 24.3827 4.68818C24.4364 4.70579 24.4859 4.73413 24.5283 4.77149L26.0633 6.12482L21.2317 12.1665H24.4333L27.9433 7.77982L30.6967 10.2082C30.7781 10.2801 30.8282 10.381 30.8363 10.4893C30.8444 10.5977 30.8098 10.7049 30.74 10.7882L29.59 12.1665H32.83C33.2313 11.579 33.4041 10.865 33.3157 10.159C33.2273 9.45294 32.8838 8.8036 32.35 8.33316L26.1833 2.89482C25.8858 2.63283 25.5381 2.43423 25.1613 2.31114C24.7844 2.18806 24.3865 2.14309 23.9917 2.17896C23.5969 2.21484 23.2136 2.33081 22.8651 2.5198C22.5167 2.70879 22.2104 2.96683 21.965 3.27816L14.96 12.1665H18.1433L23.9267 4.82482ZM27.0833 23.8332C26.7518 23.8332 26.4339 23.9649 26.1995 24.1993C25.965 24.4337 25.8333 24.7516 25.8333 25.0832C25.8333 25.4147 25.965 25.7326 26.1995 25.967C26.4339 26.2015 26.7518 26.3332 27.0833 26.3332H30.4167C30.7482 26.3332 31.0661 26.2015 31.3006 25.967C31.535 25.7326 31.6667 25.4147 31.6667 25.0832C31.6667 24.7516 31.535 24.4337 31.3006 24.1993C31.0661 23.9649 30.7482 23.8332 30.4167 23.8332H27.0833ZM7.5 12.5832C7.5 12.2516 7.6317 11.9337 7.86612 11.6993C8.10054 11.4649 8.41848 11.3332 8.75 11.3332H13.9633L15.95 8.83316H8.75C7.75544 8.83316 6.80161 9.22825 6.09835 9.93151C5.39509 10.6348 5 11.5886 5 12.5832V30.0832C5 31.5197 5.57068 32.8975 6.5865 33.9133C7.60233 34.9291 8.98008 35.4998 10.4167 35.4998H30.4167C31.8533 35.4998 33.231 34.9291 34.2468 33.9133C35.2627 32.8975 35.8333 31.5197 35.8333 30.0832V19.2498C35.8333 17.8132 35.2627 16.4355 34.2468 15.4197C33.231 14.4038 31.8533 13.8332 30.4167 13.8332H8.75C8.41848 13.8332 8.10054 13.7015 7.86612 13.467C7.6317 13.2326 7.5 12.9147 7.5 12.5832ZM7.5 30.0832V16.1198C7.89167 16.2582 8.31167 16.3332 8.75 16.3332H30.4167C32.0267 16.3332 33.3333 17.6398 33.3333 19.2498V30.0832C33.3333 30.8567 33.026 31.5986 32.4791 32.1456C31.9321 32.6925 31.1902 32.9998 30.4167 32.9998H10.4167C9.64312 32.9998 8.90125 32.6925 8.35427 32.1456C7.80729 31.5986 7.5 30.8567 7.5 30.0832Z" fill="#475569"/>
</svg>
