<svg width="40" height="41" viewBox="0 0 40 41" fill="none" xmlns="http://www.w3.org/2000/svg">
<path d="M5 20.5H20V23H5V20.5ZM2.5 14.25H15V16.75H2.5V14.25Z" fill="#475569"/>
<path d="M37.3987 21.2575L33.6487 12.5075C33.5524 12.2826 33.3923 12.0909 33.1881 11.9562C32.9838 11.8216 32.7446 11.7499 32.4999 11.75H28.7499V9.25C28.7499 8.91848 28.6182 8.60054 28.3838 8.36612C28.1494 8.1317 27.8315 8 27.4999 8H7.49993V10.5H26.2499V26.195C25.6803 26.5257 25.1819 26.966 24.7833 27.4903C24.3846 28.0146 24.0938 28.6127 23.9274 29.25H16.0724C15.7682 28.0717 15.0446 27.0448 14.0374 26.3617C13.0302 25.6787 11.8084 25.3865 10.6012 25.5399C9.39391 25.6932 8.28401 26.2816 7.47953 27.1947C6.67504 28.1078 6.2312 29.283 6.2312 30.5C6.2312 31.717 6.67504 32.8922 7.47953 33.8053C8.28401 34.7184 9.39391 35.3068 10.6012 35.4601C11.8084 35.6135 13.0302 35.3213 14.0374 34.6383C15.0446 33.9552 15.7682 32.9283 16.0724 31.75H23.9274C24.1993 32.8228 24.8212 33.7743 25.6947 34.454C26.5681 35.1336 27.6432 35.5027 28.7499 35.5027C29.8567 35.5027 30.9318 35.1336 31.8052 34.454C32.6786 33.7743 33.3005 32.8228 33.5724 31.75H36.2499C36.5815 31.75 36.8994 31.6183 37.1338 31.3839C37.3682 31.1495 37.4999 30.8315 37.4999 30.5V21.75C37.5 21.5807 37.4655 21.4131 37.3987 21.2575ZM11.2499 33C10.7555 33 10.2721 32.8534 9.861 32.5787C9.44988 32.304 9.12945 31.9135 8.94023 31.4567C8.75101 30.9999 8.7015 30.4972 8.79797 30.0123C8.89443 29.5273 9.13253 29.0819 9.48216 28.7322C9.83179 28.3826 10.2773 28.1445 10.7622 28.048C11.2472 27.9516 11.7498 28.0011 12.2066 28.1903C12.6635 28.3795 13.0539 28.7 13.3286 29.1111C13.6033 29.5222 13.7499 30.0055 13.7499 30.5C13.7493 31.1628 13.4857 31.7983 13.017 32.267C12.5483 32.7357 11.9128 32.9993 11.2499 33ZM28.7499 14.25H31.6749L34.3549 20.5H28.7499V14.25ZM28.7499 33C28.2555 33 27.7721 32.8534 27.361 32.5787C26.9499 32.304 26.6295 31.9135 26.4402 31.4567C26.251 30.9999 26.2015 30.4972 26.298 30.0123C26.3944 29.5273 26.6325 29.0819 26.9822 28.7322C27.3318 28.3826 27.7773 28.1445 28.2622 28.048C28.7472 27.9516 29.2498 28.0011 29.7066 28.1903C30.1635 28.3795 30.5539 28.7 30.8286 29.1111C31.1033 29.5222 31.2499 30.0055 31.2499 30.5C31.2493 31.1628 30.9857 31.7983 30.517 32.267C30.0483 32.7357 29.4128 32.9993 28.7499 33ZM34.9999 29.25H33.5724C33.2971 28.1793 32.6742 27.2302 31.8015 26.5516C30.9287 25.8729 29.8555 25.5031 28.7499 25.5V23H34.9999V29.25Z" fill="#475569"/>
</svg>
