<svg width="21" height="20" viewBox="0 0 21 20" fill="none" xmlns="http://www.w3.org/2000/svg">
<g clip-path="url(#clip0_393_559)">
<path d="M21.75 20.24L18.4007 16.8914C19.2958 15.7394 19.7181 14.2895 19.5817 12.837C19.4453 11.3845 18.7603 10.0386 17.6664 9.0734C16.5724 8.10819 15.1517 7.59622 13.6936 7.64176C12.2354 7.68729 10.8494 8.2869 9.81778 9.31849C8.78619 10.3501 8.18658 11.7361 8.14104 13.1943C8.09551 14.6524 8.60747 16.0732 9.57269 17.1671C10.5379 18.2611 11.8838 18.946 13.3363 19.0824C14.7888 19.2188 16.2387 18.7965 17.3907 17.9014L20.74 21.25L21.75 20.24ZM13.8929 17.6786C13.0452 17.6786 12.2166 17.4272 11.5118 16.9563C10.8071 16.4854 10.2577 15.816 9.93337 15.0329C9.609 14.2498 9.52413 13.3881 9.68949 12.5568C9.85486 11.7254 10.263 10.9618 10.8624 10.3624C11.4618 9.76303 12.2254 9.35486 13.0568 9.18949C13.8881 9.02413 14.7498 9.109 15.5329 9.43337C16.316 9.75775 16.9854 10.3071 17.4563 11.0118C17.9272 11.7166 18.1786 12.5452 18.1786 13.3929C18.1772 14.5291 17.7253 15.6184 16.9219 16.4219C16.1184 17.2253 15.0291 17.6772 13.8929 17.6786ZM1.75 8.39286H7.46429V9.82143H1.75V8.39286ZM1.75 1.25H13.1786V2.67857H1.75V1.25ZM1.75 4.82143H13.1786V6.25H1.75V4.82143Z" fill="white"/>
</g>
<defs>
<clipPath id="clip0_393_559">
<rect width="20" height="20" fill="white" transform="translate(0.5)"/>
</clipPath>
</defs>
</svg>
