<svg width="12" height="12" viewBox="0 0 12 12" fill="none" xmlns="http://www.w3.org/2000/svg">
<path d="M6.395 10.5005L1.5 5.60547V6.60547C1.5 6.87047 1.605 7.12547 1.795 7.31047L5.69 11.2055C6.08 11.5955 6.715 11.5955 7.105 11.2055L10.21 8.10047C10.6 7.71047 10.6 7.07547 10.21 6.68547L6.395 10.5005Z" fill="#475569"/>
<path d="M5.69 8.705C5.885 8.9 6.14 9 6.395 9C6.65 9 6.905 8.9 7.1 8.705L10.205 5.6C10.595 5.21 10.595 4.575 10.205 4.185L6.31 0.29C6.125 0.105 5.87 0 5.605 0H2.5C1.95 0 1.5 0.45 1.5 1V4.105C1.5 4.37 1.605 4.625 1.795 4.81L5.69 8.705ZM2.5 1H5.605L9.5 4.895L6.395 8L2.5 4.105V1Z" fill="#475569"/>
<path d="M3.625 2.75C3.97018 2.75 4.25 2.47018 4.25 2.125C4.25 1.77982 3.97018 1.5 3.625 1.5C3.27982 1.5 3 1.77982 3 2.125C3 2.47018 3.27982 2.75 3.625 2.75Z" fill="#475569"/>
</svg>
