<svg width="20" height="15" viewBox="0 0 20 15" fill="none" xmlns="http://www.w3.org/2000/svg">
<path d="M18.5714 0.5H1.42857C1.04969 0.5 0.686328 0.6475 0.418419 0.91005C0.15051 1.1726 0 1.5287 0 1.9V13.1C0 13.4713 0.15051 13.8274 0.418419 14.0899C0.686328 14.3525 1.04969 14.5 1.42857 14.5H18.5714C18.9503 14.5 19.3137 14.3525 19.5816 14.0899C19.8495 13.8274 20 13.4713 20 13.1V1.9C20 1.5287 19.8495 1.1726 19.5816 0.91005C19.3137 0.6475 18.9503 0.5 18.5714 0.5ZM17 1.9L10 6.646L3 1.9H17ZM1.42857 13.1V2.537L9.59286 8.074C9.71243 8.15529 9.85448 8.19885 10 8.19885C10.1455 8.19885 10.2876 8.15529 10.4071 8.074L18.5714 2.537V13.1H1.42857Z" fill="white"/>
</svg>
