<svg width="40" height="41" viewBox="0 0 40 41" fill="none" xmlns="http://www.w3.org/2000/svg">
<path d="M37.4925 39.5H37.4911C16.7206 39.5292 0.978108 23.6015 1.00002 3.00856V3.0075C1.00002 2.17403 1.67555 1.5 2.50002 1.5H9.10002C9.84035 1.5 10.4737 2.04555 10.5834 2.78235C11.0327 5.81434 11.9148 8.76618 13.2026 11.5476L13.2029 11.5484L13.4601 12.1027C13.4602 12.1029 13.4603 12.1031 13.4604 12.1033C13.4604 12.1033 13.4604 12.1033 13.4604 12.1034C13.5353 12.2654 13.5513 12.4484 13.5058 12.621L14.4727 12.8761L13.5058 12.621C13.4603 12.7936 13.3561 12.9449 13.2111 13.0489C10.7744 14.7888 9.79776 18.3294 11.739 21.1209C13.8117 24.1017 16.3987 26.6895 19.3788 28.7633L19.3801 28.7642C22.1733 30.7014 25.7137 29.7262 27.4515 27.2908L27.4517 27.2905C27.5557 27.1447 27.7073 27.0399 27.8803 26.9941L27.6245 26.0274L27.8803 26.9941C28.0534 26.9483 28.237 26.9645 28.3995 27.0397L28.4009 27.0404L28.9517 27.2946C28.952 27.2948 28.9523 27.2949 28.9525 27.295C31.7341 28.5851 34.6859 29.4675 37.7176 29.9166C38.4538 30.0262 39 30.659 39 31.4025V38C39 38.1971 38.9612 38.3923 38.8857 38.5743C38.8102 38.7564 38.6996 38.9218 38.5601 39.0611C38.4207 39.2005 38.2551 39.3109 38.073 39.3862C37.8908 39.4615 37.6956 39.5002 37.4985 39.5H37.4975H37.4925Z" stroke="white" stroke-width="2"/>
</svg>
