<svg width="169" height="46" viewBox="0 0 169 46" fill="none" xmlns="http://www.w3.org/2000/svg">
<path d="M46.9023 21.0001V2.35212H54.4411C55.9856 2.35212 57.2813 2.61924 58.3284 3.15341C59.3819 3.68758 60.1771 4.42215 60.7137 5.35691C61.2568 6.28568 61.5284 7.34191 61.5284 8.52568C61.5284 9.72145 61.2568 10.7838 60.7137 11.7126C60.1705 12.6413 59.3689 13.3728 58.3087 13.907C57.2486 14.4351 55.943 14.6991 54.3921 14.6991H49.3957V11.922H53.9013C54.8044 11.922 55.5439 11.7763 56.1197 11.4849C56.6956 11.1935 57.121 10.7929 57.3959 10.283C57.6772 9.77307 57.8179 9.1873 57.8179 8.52568C57.8179 7.86399 57.6772 7.28122 57.3959 6.77738C57.121 6.27353 56.6923 5.88199 56.1099 5.60276C55.534 5.31745 54.7913 5.17484 53.8817 5.17484H50.5442V21.0001H46.9023ZM64.6917 21.0001V2.35212H77.7672V5.18391H68.3335V10.2465H77.0896V13.0784H68.3335V18.1684H77.8459V21.0001H64.6917ZM81.4822 21.0001V2.35212H89.0207C90.5655 2.35212 91.8608 2.60098 92.9081 3.0988C93.9616 3.59655 94.757 4.29461 95.2935 5.19299C95.8363 6.08538 96.1085 7.12645 96.1085 8.31622C96.1085 9.51207 95.8332 10.5501 95.2834 11.4303C94.7407 12.3045 93.939 12.9812 92.8785 13.4608C91.8187 13.9343 90.5164 14.1711 88.9716 14.1711H83.6025V11.3665H88.4811C89.3841 11.3665 90.1234 11.2512 90.6989 11.0205C91.2759 10.7838 91.7009 10.4408 91.9754 9.99161C92.2569 9.53638 92.3981 8.97791 92.3981 8.31622C92.3981 7.65453 92.2569 7.08999 91.9754 6.62261C91.6947 6.14915 91.2658 5.79099 90.6895 5.54815C90.114 5.29922 89.3708 5.17484 88.4616 5.17484H85.124V21.0001H81.4822ZM91.8678 12.5503L96.8438 21.0001H92.781L87.8923 12.5503H91.8678ZM99.4601 21.0001V2.35212H112.339V5.18391H103.103V10.2465H111.456V13.0784H103.103V21.0001H99.4601ZM115.658 21.0001V2.35212H128.732V5.18391H119.299V10.2465H128.055V13.0784H119.299V18.1684H128.811V21.0001H115.658ZM149.655 8.64399H145.984C145.879 8.08553 145.687 7.59076 145.405 7.15984C145.123 6.72276 144.774 6.35245 144.354 6.04891C143.935 5.74545 143.458 5.51776 142.922 5.36607C142.391 5.20822 141.819 5.1293 141.204 5.1293C140.11 5.1293 139.143 5.38422 138.298 5.89415C137.454 6.39799 136.793 7.13853 136.315 8.11591C135.838 9.08714 135.598 10.2738 135.598 11.6761C135.598 13.1026 135.838 14.3045 136.315 15.2818C136.799 16.2531 137.461 16.9876 138.298 17.4854C139.143 17.9771 140.108 18.223 141.194 18.223C141.796 18.223 142.359 18.1501 142.883 18.0045C143.412 17.8527 143.886 17.6311 144.305 17.3398C144.731 17.0484 145.087 16.6902 145.376 16.2653C145.67 15.8404 145.872 15.3548 145.984 14.8084L149.655 14.8266C149.518 15.7129 149.22 16.5445 148.762 17.3215C148.311 18.0985 147.718 18.7845 146.985 19.3794C146.253 19.9682 145.395 20.4295 144.413 20.7634C143.432 21.0911 142.343 21.2551 141.145 21.2551C139.378 21.2551 137.801 20.8757 136.413 20.1169C135.026 19.3581 133.933 18.2625 133.135 16.8298C132.336 15.3972 131.937 13.6793 131.937 11.6761C131.937 9.66684 132.34 7.94899 133.144 6.52245C133.95 5.08984 135.045 3.99415 136.433 3.23534C137.82 2.47655 139.391 2.09717 141.145 2.09717C142.263 2.09717 143.305 2.24286 144.267 2.53425C145.228 2.82559 146.085 3.25354 146.838 3.81807C147.59 4.37653 148.209 5.06253 148.694 5.87591C149.184 6.6833 149.505 7.60599 149.655 8.64399ZM152.107 5.18391V2.35212H168.146V5.18391H161.933V21.0001H158.321V5.18391H152.107Z" fill="white"/>
<path d="M4.49011 5.29477L0.34375 0.807617H32.4779V43.4358L28.3316 38.6282L27.6405 5.29477H4.49011Z" fill="white"/>
<path d="M32.4797 45.9999H0L0.345529 0.807617L4.49187 5.29477V41.8332L32.4797 45.9999Z" fill="#00A2FC"/>
<path d="M17.9688 23.8845V21.9614H25.9159V23.8845H17.9688Z" fill="white"/>
<path d="M51.7823 43.6923H48.4346L48.4559 41.4207H51.7823C52.685 41.4207 53.4419 41.2244 54.0532 40.8317C54.6645 40.432 55.1265 39.8607 55.4392 39.1174C55.752 38.3673 55.9083 37.4698 55.9083 36.4251V35.6364C55.9083 34.8301 55.8194 34.1184 55.6418 33.5015C55.4641 32.8845 55.2011 32.3657 54.8529 31.945C54.5117 31.5243 54.0887 31.2053 53.5841 30.988C53.0795 30.7706 52.5002 30.6619 51.8463 30.6619H48.3706V28.3798H51.8463C52.884 28.3798 53.8294 28.5516 54.6822 28.8951C55.5423 29.2387 56.285 29.733 56.9105 30.378C57.5431 31.016 58.0264 31.7802 58.3605 32.6707C58.7016 33.561 58.8723 34.5567 58.8723 35.6574V36.4251C58.8723 37.5189 58.7016 38.5145 58.3605 39.4119C58.0264 40.3024 57.5431 41.0666 56.9105 41.7046C56.285 42.3426 55.5387 42.8334 54.6716 43.177C53.8045 43.5205 52.8413 43.6923 51.7823 43.6923ZM50.0765 28.3798V43.6923H47.1445V28.3798H50.0765ZM73.937 35.6469V36.4357C73.937 37.5925 73.7806 38.6337 73.4679 39.5592C73.1552 40.4777 72.7109 41.2594 72.1352 41.9044C71.5595 42.5494 70.8736 43.0437 70.0775 43.3873C69.2815 43.7308 68.3966 43.9026 67.4228 43.9026C66.4632 43.9026 65.5819 43.7308 64.7788 43.3873C63.9826 43.0437 63.2932 42.5494 62.7104 41.9044C62.1275 41.2594 61.6763 40.4777 61.3564 39.5592C61.0365 38.6337 60.8766 37.5925 60.8766 36.4357V35.6469C60.8766 34.483 61.0365 33.4419 61.3564 32.5234C61.6763 31.605 62.124 30.8232 62.6998 30.1781C63.2754 29.5261 63.9614 29.0283 64.7574 28.6847C65.5606 28.3412 66.4419 28.1694 67.4015 28.1694C68.3753 28.1694 69.2601 28.3412 70.0562 28.6847C70.8523 29.0283 71.5381 29.5261 72.1139 30.1781C72.6967 30.8232 73.1445 31.605 73.4573 32.5234C73.7771 33.4419 73.937 34.483 73.937 35.6469ZM70.9731 36.4357V35.6259C70.9731 34.7915 70.8949 34.0589 70.7385 33.4278C70.5821 32.7898 70.3512 32.2535 70.0456 31.8188C69.7399 31.384 69.3632 31.058 68.9154 30.8407C68.4676 30.6164 67.963 30.5042 67.4015 30.5042C66.8329 30.5042 66.3283 30.6164 65.8875 30.8407C65.454 31.058 65.0844 31.384 64.7788 31.8188C64.4731 32.2535 64.2386 32.7898 64.075 33.4278C63.9187 34.0589 63.8405 34.7915 63.8405 35.6259V36.4357C63.8405 37.263 63.9187 37.9957 64.075 38.6337C64.2386 39.2717 64.4731 39.8116 64.7788 40.2533C65.0915 40.688 65.4682 41.0175 65.9089 41.2419C66.3495 41.4662 66.8542 41.5784 67.4228 41.5784C67.9914 41.5784 68.4961 41.4662 68.9367 41.2419C69.3774 41.0175 69.747 40.688 70.0456 40.2533C70.3512 39.8116 70.5821 39.2717 70.7385 38.6337C70.8949 37.9957 70.9731 37.263 70.9731 36.4357ZM88.9907 35.6469V36.4357C88.9907 37.5925 88.8348 38.6337 88.5221 39.5592C88.2094 40.4777 87.7649 41.2594 87.1894 41.9044C86.6138 42.5494 85.9276 43.0437 85.1314 43.3873C84.3352 43.7308 83.4509 43.9026 82.4769 43.9026C81.5177 43.9026 80.6358 43.7308 79.8326 43.3873C79.0372 43.0437 78.347 42.5494 77.7645 41.9044C77.1817 41.2594 76.7303 40.4777 76.4105 39.5592C76.0906 38.6337 75.9308 37.5925 75.9308 36.4357V35.6469C75.9308 34.483 76.0906 33.4419 76.4105 32.5234C76.7303 31.605 77.1782 30.8232 77.7536 30.1781C78.3299 29.5261 79.0153 29.0283 79.8115 28.6847C80.6147 28.3412 81.4959 28.1694 82.4559 28.1694C83.4291 28.1694 84.3142 28.3412 85.1104 28.6847C85.9066 29.0283 86.592 29.5261 87.1683 30.1781C87.7508 30.8232 88.1984 31.605 88.5111 32.5234C88.8309 33.4419 88.9907 34.483 88.9907 35.6469ZM86.0274 36.4357V35.6259C86.0274 34.7915 85.9487 34.0589 85.7927 33.4278C85.636 32.7898 85.4051 32.2535 85.0994 31.8188C84.7938 31.384 84.4171 31.058 83.9695 30.8407C83.5219 30.6164 83.0173 30.5042 82.4559 30.5042C81.8866 30.5042 81.3821 30.6164 80.9415 30.8407C80.5079 31.058 80.1383 31.384 79.8326 31.8188C79.5269 32.2535 79.2929 32.7898 79.1292 33.4278C78.9724 34.0589 78.8944 34.7915 78.8944 35.6259V36.4357C78.8944 37.263 78.9724 37.9957 79.1292 38.6337C79.2929 39.2717 79.5269 39.8116 79.8326 40.2533C80.1453 40.688 80.5219 41.0175 80.9633 41.2419C81.4039 41.4662 81.9084 41.5784 82.4769 41.5784C83.0454 41.5784 83.55 41.4662 83.9905 41.2419C84.4311 41.0175 84.8008 40.688 85.0994 40.2533C85.4051 39.8116 85.636 39.2717 85.7927 38.6337C85.9487 37.9957 86.0274 37.263 86.0274 36.4357ZM91.4752 28.3798H97.1149C98.2947 28.3798 99.3077 28.555 100.154 28.9056C101 29.2562 101.65 29.775 102.105 30.4621C102.56 31.1492 102.787 31.994 102.787 32.9967C102.787 33.789 102.645 34.476 102.361 35.058C102.076 35.6399 101.674 36.1272 101.156 36.5198C100.644 36.9124 100.04 37.2209 99.3436 37.4453L98.4265 37.908H93.4474L93.4263 35.6259H97.1468C97.7512 35.6259 98.2526 35.5207 98.6503 35.3104C99.0488 35.1 99.3467 34.809 99.5463 34.4375C99.7522 34.0659 99.8551 33.6417 99.8551 33.165C99.8551 32.6531 99.7561 32.2114 99.5565 31.8398C99.3576 31.4612 99.0558 31.1703 98.6503 30.9669C98.2456 30.7636 97.7333 30.6619 97.1149 30.6619H94.4073V43.6923H91.4752V28.3798ZM100.239 43.6923L96.6462 36.8353L99.7483 36.8248L103.385 43.5451V43.6923H100.239ZM113.481 39.7169C113.481 39.4224 113.435 39.1595 113.342 38.9281C113.257 38.6897 113.097 38.476 112.862 38.2867C112.635 38.0903 112.311 37.9011 111.892 37.7187C111.48 37.5294 110.946 37.3331 110.293 37.1298C109.568 36.9054 108.892 36.6531 108.267 36.3726C107.642 36.0921 107.091 35.7661 106.615 35.3945C106.146 35.0229 105.779 34.5952 105.517 34.1114C105.254 33.6207 105.122 33.0527 105.122 32.4077C105.122 31.7767 105.257 31.2018 105.528 30.683C105.804 30.1641 106.195 29.7189 106.7 29.3474C107.205 28.9687 107.798 28.6777 108.481 28.4744C109.17 28.2711 109.93 28.1694 110.762 28.1694C111.913 28.1694 112.908 28.3763 113.748 28.79C114.593 29.2036 115.247 29.7645 115.709 30.4727C116.171 31.1807 116.402 31.9765 116.402 32.86H113.481C113.481 32.3832 113.378 31.9625 113.171 31.5979C112.972 31.2334 112.667 30.9459 112.255 30.7355C111.849 30.5252 111.338 30.42 110.72 30.42C110.122 30.42 109.625 30.5077 109.227 30.683C108.835 30.8583 108.541 31.0967 108.342 31.3981C108.15 31.6996 108.054 32.0361 108.054 32.4077C108.054 32.6882 108.121 32.9406 108.257 33.165C108.392 33.3823 108.595 33.5891 108.864 33.7854C109.134 33.9747 109.469 34.1535 109.866 34.3218C110.272 34.483 110.741 34.6443 111.274 34.8056C112.126 35.058 112.873 35.3384 113.513 35.6469C114.159 35.9554 114.696 36.306 115.122 36.6986C115.556 37.0912 115.88 37.5329 116.092 38.0237C116.313 38.5145 116.423 39.0719 116.423 39.6959C116.423 40.355 116.292 40.9439 116.029 41.4627C115.766 41.9815 115.389 42.4233 114.899 42.7878C114.408 43.1524 113.819 43.4294 113.129 43.6187C112.447 43.808 111.683 43.9026 110.837 43.9026C110.083 43.9026 109.337 43.8044 108.598 43.6081C107.865 43.4048 107.201 43.1034 106.604 42.7037C106.007 42.2971 105.531 41.7852 105.175 41.1683C104.82 40.5443 104.642 39.815 104.642 38.9807H107.585C107.585 39.4645 107.663 39.8782 107.819 40.2217C107.983 40.5583 108.21 40.8352 108.502 41.0526C108.8 41.2629 109.148 41.4171 109.547 41.5153C109.944 41.6134 110.375 41.6625 110.837 41.6625C111.434 41.6625 111.924 41.5819 112.308 41.4207C112.699 41.2524 112.99 41.021 113.182 40.7265C113.381 40.432 113.481 40.0955 113.481 39.7169Z" fill="white"/>
</svg>
