<svg width="24" height="24" viewBox="0 0 24 24" fill="none" xmlns="http://www.w3.org/2000/svg">
<path d="M14.215 7.125L17.807 3.533C17.855 3.485 17.839 3.401 17.777 3.375C15.739 2.503 13.234 2.868 11.552 4.549C9.91998 6.181 9.49098 8.5 10.264 10.475L3.50098 17.238C2.61198 18.127 2.61198 19.569 3.50098 20.459C4.38998 21.348 5.83198 21.348 6.72198 20.459L13.528 13.653C15.503 14.426 17.822 13.997 19.454 12.365C21.138 10.681 21.583 8.173 20.63 6.133C20.602 6.074 20.52 6.059 20.473 6.105L16.792 9.703L15.504 8.415L14.215 7.125V7.125Z" stroke="#4154D9" stroke-width="1.5" stroke-linecap="round" stroke-linejoin="round"/>
</svg>
