<svg width="24" height="24" viewBox="0 0 24 24" fill="none" xmlns="http://www.w3.org/2000/svg">
<g clip-path="url(#clip0_1_492)">
<path d="M11.3781 15.62L16.3811 20.623C16.7941 21.036 17.4641 21.036 17.8771 20.623L20.6241 17.876C21.0371 17.463 21.0371 16.793 20.6241 16.38L15.6211 11.377" stroke="#4154D9" stroke-width="1.5" stroke-linecap="round" stroke-linejoin="round"/>
<path d="M18.67 8.32001L15.67 5.32001" stroke="#4154D9" stroke-width="1.5" stroke-linecap="round" stroke-linejoin="round"/>
<path d="M12.62 8.37801L7.61901 3.37701C7.20601 2.96401 6.53601 2.96401 6.12301 3.37701L3.37701 6.12301C2.96401 6.53601 2.96401 7.20601 3.37701 7.61901L8.37801 12.62" stroke="#4154D9" stroke-width="1.5" stroke-linecap="round" stroke-linejoin="round"/>
<path d="M3.30802 19.43L4.02502 17.273C4.12302 16.978 4.28902 16.709 4.50902 16.489L17.792 3.206C18.183 2.815 18.816 2.815 19.206 3.206L20.792 4.792C21.183 5.183 21.183 5.816 20.792 6.206L7.50702 19.491C7.28802 19.71 7.02102 19.875 6.72702 19.974L4.57402 20.694C3.79302 20.955 3.04802 20.212 3.30802 19.43V19.43Z" stroke="#4154D9" stroke-width="1.5" stroke-linecap="round" stroke-linejoin="round"/>
</g>
<defs>
<clipPath id="clip0_1_492">
<rect width="24" height="24" fill="white"/>
</clipPath>
</defs>
</svg>
