<svg width="25" height="24" viewBox="0 0 25 24" fill="none" xmlns="http://www.w3.org/2000/svg">
<g clip-path="url(#clip0_1_495)">
<path d="M5.5 16H7.5" stroke="#4154D9" stroke-width="1.5" stroke-linecap="round" stroke-linejoin="round"/>
<path d="M13.5 19H4.5C3.395 19 2.5 18.105 2.5 17V7.569C2.5 7.299 2.555 7.031 2.661 6.783L3.759 4.214C4.074 3.478 4.797 3 5.598 3H15.402C16.203 3 16.926 3.478 17.241 4.214L18.339 6.783C18.445 7.032 18.5 7.299 18.5 7.569V11.1" stroke="#4154D9" stroke-width="1.5" stroke-linecap="round" stroke-linejoin="round"/>
<path d="M10.5 3V7.44" stroke="#4154D9" stroke-width="1.5" stroke-linecap="round" stroke-linejoin="round"/>
<path d="M18.49 7.44H2.5" stroke="#4154D9" stroke-width="1.5" stroke-linecap="round" stroke-linejoin="round"/>
<path d="M21.0355 12.4645C22.9882 14.4171 22.9882 17.583 21.0355 19.5356C19.0829 21.4882 15.9171 21.4882 13.9645 19.5356C12.0118 17.583 12.0118 14.4171 13.9645 12.4645C15.9171 10.5119 19.0829 10.5119 21.0355 12.4645" stroke="#4154D9" stroke-width="1.5" stroke-linecap="round" stroke-linejoin="round"/>
<path d="M19.722 14.889L16.944 17.667L15.278 16" stroke="#4154D9" stroke-width="1.5" stroke-linecap="round" stroke-linejoin="round"/>
</g>
<defs>
<clipPath id="clip0_1_495">
<rect width="24" height="24" fill="white" transform="translate(0.5)"/>
</clipPath>
</defs>
</svg>
