<svg width="118" height="36" viewBox="0 0 118 36" fill="none" xmlns="http://www.w3.org/2000/svg">
<g clip-path="url(#clip0_212_11186)">
<path d="M32.5547 18.0016V4.948H37.7875C38.8595 4.948 39.7589 5.13499 40.4857 5.5089C41.217 5.88282 41.7689 6.39702 42.1414 7.05135C42.5184 7.70149 42.7069 8.44085 42.7069 9.26949C42.7069 10.1065 42.5184 10.8501 42.1414 11.5003C41.7644 12.1504 41.2079 12.6624 40.4721 13.0364C39.7362 13.4061 38.83 13.5909 37.7535 13.5909H34.2853V11.6469H37.4128C38.0396 11.6469 38.5529 11.5449 38.9526 11.341C39.3524 11.137 39.6476 10.8566 39.8384 10.4996C40.0337 10.1427 40.1314 9.73262 40.1314 9.26949C40.1314 8.80631 40.0337 8.39837 39.8384 8.04568C39.6476 7.69298 39.3501 7.41891 38.9458 7.22345C38.5461 7.02373 38.0305 6.9239 37.3992 6.9239H35.0825V18.0016H32.5547ZM44.9026 18.0016V4.948H53.9785V6.93025H47.4304V10.4741H53.5082V12.4564H47.4304V16.0194H54.0332V18.0016H44.9026ZM56.5572 18.0016V4.948H61.7898C62.8621 4.948 63.7611 5.1222 64.4881 5.47067C65.2194 5.8191 65.7715 6.30774 66.1439 6.93661C66.5206 7.56128 66.7095 8.29003 66.7095 9.12287C66.7095 9.95996 66.5184 10.6866 66.1368 11.3027C65.7601 11.9146 65.2037 12.3884 64.4675 12.724C63.7319 13.0555 62.828 13.2213 61.7557 13.2213H58.0289V11.2581H61.4152C62.042 11.2581 62.5552 11.1774 62.9546 11.0159C63.3552 10.8501 63.6502 10.6101 63.8407 10.2956C64.0361 9.97698 64.1341 9.58605 64.1341 9.12287C64.1341 8.65968 64.0361 8.26451 63.8407 7.93734C63.6458 7.60592 63.3481 7.35521 62.9481 7.18522C62.5487 7.01097 62.0328 6.9239 61.4017 6.9239H59.085V18.0016H56.5572ZM63.766 12.0867L67.2199 18.0016H64.3999L61.0065 12.0867H63.766ZM69.036 18.0016V4.948H77.9753V6.93025H71.5643V10.4741H77.3625V12.4564H71.5643V18.0016H69.036ZM80.279 18.0016V4.948H89.3541V6.93025H82.8062V10.4741H88.8843V12.4564H82.8062V16.0194H89.4088V18.0016H80.279ZM103.877 9.35231H101.329C101.256 8.96138 101.123 8.61505 100.927 8.3134C100.731 8.00745 100.489 7.74823 100.198 7.53575C99.907 7.32333 99.5758 7.16395 99.2034 7.05776C98.8353 6.94727 98.438 6.89202 98.0109 6.89202C97.252 6.89202 96.5803 7.07047 95.9941 7.42742C95.4084 7.78011 94.9494 8.29848 94.6176 8.98265C94.2863 9.66252 94.1202 10.4932 94.1202 11.4748C94.1202 12.4733 94.2863 13.3147 94.6176 13.9988C94.9537 14.6787 95.4127 15.1928 95.9941 15.5413C96.5803 15.8855 97.2504 16.0576 98.0044 16.0576C98.4223 16.0576 98.8125 16.0066 99.1763 15.9046C99.5438 15.7984 99.8729 15.6433 100.164 15.4393C100.459 15.2354 100.707 14.9847 100.907 14.6872C101.111 14.3898 101.252 14.0498 101.329 13.6674L103.877 13.6801C103.782 14.3006 103.575 14.8827 103.257 15.4266C102.944 15.9705 102.533 16.4507 102.024 16.8671C101.516 17.2793 100.92 17.6022 100.239 17.8359C99.5574 18.0653 98.8017 18.1801 97.9703 18.1801C96.7438 18.1801 95.6493 17.9145 94.6858 17.3834C93.7229 16.8522 92.9645 16.0852 92.4102 15.0824C91.856 14.0796 91.5788 12.877 91.5788 11.4748C91.5788 10.0683 91.8581 8.86581 92.4167 7.86723C92.9759 6.8644 93.7364 6.09742 94.6993 5.56625C95.6623 5.0351 96.753 4.76953 97.9703 4.76953C98.7465 4.76953 99.4691 4.87152 100.137 5.07549C100.804 5.27943 101.399 5.57899 101.922 5.97416C102.444 6.36508 102.873 6.84528 103.21 7.41465C103.55 7.97982 103.773 8.62571 103.877 9.35231ZM105.579 6.93025V4.948H116.712V6.93025H112.399V18.0016H109.892V6.93025H105.579Z" fill="#202020"/>
<path d="M3.1183 7.00819L0.240234 3.86719H22.5451V33.7069L19.6671 30.3416L19.1874 7.00819H3.1183Z" fill="#202020"/>
<path d="M22.5447 35.5018H0L0.239838 3.86719L3.11789 7.00819V32.5851L22.5447 35.5018Z" fill="#00A2FC"/>
<path d="M12.4717 20.0219V18.6758H17.988V20.0219H12.4717Z" fill="#202020"/>
<path d="M35.9438 33.8855H33.6201L33.6348 32.2954H35.9438C36.5703 32.2954 37.0958 32.158 37.5201 31.8831C37.9443 31.6034 38.265 31.2034 38.4821 30.6831C38.6992 30.158 38.8077 29.5298 38.8077 28.7985V28.2464C38.8077 27.682 38.746 27.1838 38.6227 26.752C38.4994 26.3201 38.3168 25.9569 38.0751 25.6624C37.8383 25.3679 37.5447 25.1446 37.1944 24.9925C36.8442 24.8403 36.442 24.7643 35.9882 24.7643H33.5757V23.1668H35.9882C36.7085 23.1668 37.3647 23.287 37.9567 23.5275C38.5536 23.768 39.0692 24.114 39.5033 24.5655C39.9424 25.0121 40.2779 25.5471 40.5098 26.1704C40.7466 26.7937 40.865 27.4906 40.865 28.2611V28.7985C40.865 29.5642 40.7466 30.2611 40.5098 30.8893C40.2779 31.5126 39.9424 32.0475 39.5033 32.4941C39.0692 32.9407 38.5512 33.2843 37.9492 33.5248C37.3474 33.7653 36.6789 33.8855 35.9438 33.8855ZM34.7597 23.1668V33.8855H32.7246V23.1668H34.7597ZM51.3217 28.2538V28.8059C51.3217 29.6157 51.2132 30.3445 50.9961 30.9924C50.779 31.6353 50.4707 32.1825 50.0711 32.634C49.6715 33.0855 49.1954 33.4315 48.6428 33.672C48.0903 33.9125 47.476 34.0327 46.8001 34.0327C46.1341 34.0327 45.5223 33.9125 44.9648 33.672C44.4122 33.4315 43.9337 33.0855 43.5291 32.634C43.1246 32.1825 42.8113 31.6353 42.5893 30.9924C42.3673 30.3445 42.2563 29.6157 42.2563 28.8059V28.2538C42.2563 27.4391 42.3673 26.7103 42.5893 26.0673C42.8113 25.4244 43.1221 24.8772 43.5218 24.4256C43.9213 23.9692 44.3975 23.6207 44.95 23.3802C45.5075 23.1398 46.1193 23.0195 46.7853 23.0195C47.4612 23.0195 48.0754 23.1398 48.628 23.3802C49.1806 23.6207 49.6566 23.9692 50.0563 24.4256C50.4608 24.8772 50.7716 25.4244 50.9887 26.0673C51.2107 26.7103 51.3217 27.4391 51.3217 28.2538ZM49.2644 28.8059V28.2391C49.2644 27.655 49.2102 27.1422 49.1016 26.7004C48.9931 26.2538 48.8327 25.8784 48.6206 25.5741C48.4085 25.2698 48.147 25.0416 47.8362 24.8894C47.5253 24.7324 47.1751 24.6539 46.7853 24.6539C46.3906 24.6539 46.0404 24.7324 45.7344 24.8894C45.4335 25.0416 45.177 25.2698 44.9648 25.5741C44.7527 25.8784 44.5899 26.2538 44.4764 26.7004C44.3679 27.1422 44.3136 27.655 44.3136 28.2391V28.8059C44.3136 29.385 44.3679 29.8979 44.4764 30.3445C44.5899 30.7911 44.7527 31.169 44.9648 31.4782C45.1819 31.7825 45.4434 32.0132 45.7493 32.1703C46.0551 32.3273 46.4054 32.4058 46.8001 32.4058C47.1948 32.4058 47.5451 32.3273 47.851 32.1703C48.1568 32.0132 48.4134 31.7825 48.6206 31.4782C48.8327 31.169 48.9931 30.7911 49.1016 30.3445C49.2102 29.8979 49.2644 29.385 49.2644 28.8059ZM61.7708 28.2538V28.8059C61.7708 29.6157 61.6625 30.3445 61.4455 30.9924C61.2284 31.6353 60.9199 32.1825 60.5204 32.634C60.121 33.0855 59.6446 33.4315 59.092 33.672C58.5393 33.9125 57.9255 34.0327 57.2494 34.0327C56.5837 34.0327 55.9715 33.9125 55.414 33.672C54.8618 33.4315 54.3828 33.0855 53.9785 32.634C53.5739 32.1825 53.2606 31.6353 53.0386 30.9924C52.8166 30.3445 52.7056 29.6157 52.7056 28.8059V28.2538C52.7056 27.4391 52.8166 26.7103 53.0386 26.0673C53.2606 25.4244 53.5715 24.8772 53.9709 24.4256C54.3709 23.9692 54.8467 23.6207 55.3993 23.3802C55.9569 23.1398 56.5685 23.0195 57.2348 23.0195C57.9104 23.0195 58.5247 23.1398 59.0774 23.3802C59.63 23.6207 60.1058 23.9692 60.5058 24.4256C60.9102 24.8772 61.2208 25.4244 61.4379 26.0673C61.6598 26.7103 61.7708 27.4391 61.7708 28.2538ZM59.7139 28.8059V28.2391C59.7139 27.655 59.6592 27.1422 59.551 26.7004C59.4422 26.2538 59.282 25.8784 59.0698 25.5741C58.8576 25.2698 58.5962 25.0416 58.2855 24.8894C57.9748 24.7324 57.6246 24.6539 57.2348 24.6539C56.8397 24.6539 56.4895 24.7324 56.1837 24.8894C55.8827 25.0416 55.6261 25.2698 55.414 25.5741C55.2018 25.8784 55.0394 26.2538 54.9257 26.7004C54.8169 27.1422 54.7628 27.655 54.7628 28.2391V28.8059C54.7628 29.385 54.8169 29.8979 54.9257 30.3445C55.0394 30.7911 55.2018 31.169 55.414 31.4782C55.631 31.7825 55.8924 32.0132 56.1988 32.1703C56.5046 32.3273 56.8549 32.4058 57.2494 32.4058C57.644 32.4058 57.9943 32.3273 58.3001 32.1703C58.6059 32.0132 58.8625 31.7825 59.0698 31.4782C59.282 31.169 59.4422 30.7911 59.551 30.3445C59.6592 29.8979 59.7139 29.385 59.7139 28.8059ZM63.4953 23.1668H67.4099C68.2289 23.1668 68.932 23.2895 69.5193 23.5348C70.1066 23.7803 70.558 24.1435 70.8736 24.6244C71.1891 25.1054 71.3472 25.6968 71.3472 26.3986C71.3472 26.9532 71.2487 27.4342 71.0511 27.8415C70.8535 28.2489 70.5748 28.59 70.2148 28.8648C69.8598 29.1396 69.4403 29.3556 68.9569 29.5126L68.3203 29.8366H64.8642L64.8496 28.2391H67.4321C67.8516 28.2391 68.1996 28.1654 68.4757 28.0182C68.7523 27.871 68.9591 27.6673 69.0976 27.4072C69.2405 27.1471 69.312 26.8501 69.312 26.5164C69.312 26.1581 69.2432 25.8489 69.1047 25.5888C68.9666 25.3238 68.7572 25.1201 68.4757 24.9778C68.1948 24.8354 67.8391 24.7643 67.4099 24.7643H65.5306V33.8855H63.4953V23.1668ZM69.5783 33.8855L67.0846 29.0856L69.2378 29.0783L71.7618 33.7825V33.8855H69.5783ZM78.7698 31.1028C78.7698 30.8966 78.7379 30.7126 78.6735 30.5506C78.6145 30.3837 78.5035 30.2341 78.3406 30.1016C78.1825 29.9641 77.9579 29.8317 77.6672 29.704C77.3809 29.5715 77.0107 29.4341 76.5571 29.2918C76.0537 29.1347 75.5849 28.9581 75.1508 28.7617C74.7167 28.5654 74.3345 28.3372 74.0038 28.0771C73.6785 27.817 73.4241 27.5176 73.2417 27.1789C73.0593 26.8354 72.9678 26.4378 72.9678 25.9863C72.9678 25.5446 73.0615 25.1422 73.2493 24.779C73.4414 24.4158 73.7126 24.1042 74.0628 23.8441C74.4136 23.579 74.8255 23.3753 75.2991 23.233C75.7776 23.0907 76.3054 23.0195 76.8824 23.0195C77.6818 23.0195 78.3725 23.1643 78.955 23.4539C79.5417 23.7434 79.9958 24.1361 80.3163 24.6318C80.6373 25.1274 80.7975 25.6845 80.7975 26.3029H78.7698C78.7698 25.9692 78.6984 25.6747 78.5549 25.4195C78.4169 25.1643 78.2047 24.9631 77.9189 24.8158C77.6375 24.6686 77.2824 24.595 76.8531 24.595C76.4385 24.595 76.0932 24.6563 75.8171 24.779C75.5454 24.9017 75.3408 25.0686 75.2028 25.2796C75.0696 25.4906 75.003 25.7262 75.003 25.9863C75.003 26.1827 75.0496 26.3593 75.1438 26.5164C75.2374 26.6685 75.3781 26.8133 75.5654 26.9507C75.7527 27.0832 75.9849 27.2084 76.261 27.3262C76.5424 27.4391 76.8678 27.5519 77.238 27.6648C77.8296 27.8415 78.3482 28.0378 78.792 28.2538C79.2407 28.4697 79.6132 28.7151 79.9092 28.9899C80.2102 29.2648 80.4348 29.574 80.5826 29.9175C80.7358 30.2611 80.8121 30.6513 80.8121 31.0881C80.8121 31.5494 80.7212 31.9617 80.5382 32.3248C80.3558 32.688 80.0944 32.9972 79.7539 33.2524C79.4134 33.5076 79.0042 33.7015 78.5257 33.834C78.0521 33.9665 77.5216 34.0327 76.9343 34.0327C76.4115 34.0327 75.8934 33.964 75.3803 33.8266C74.872 33.6843 74.4109 33.4733 73.9962 33.1935C73.5822 32.9089 73.2514 32.5506 73.0046 32.1187C72.7583 31.6819 72.6349 31.1715 72.6349 30.5874H74.6772C74.6772 30.9261 74.7318 31.2157 74.8401 31.4561C74.9538 31.6917 75.1113 31.8856 75.3137 32.0377C75.521 32.185 75.7625 32.2929 76.0391 32.3616C76.3151 32.4303 76.6139 32.4647 76.9343 32.4647C77.349 32.4647 77.6894 32.4083 77.9557 32.2954C78.2269 32.1776 78.4294 32.0156 78.5625 31.8095C78.7005 31.6034 78.7698 31.3678 78.7698 31.1028Z" fill="#202020"/>
</g>
<defs>
<clipPath id="clip0_212_11186">
<rect width="118" height="35" fill="white" transform="translate(0 0.5)"/>
</clipPath>
</defs>
</svg>
