<svg width="191" height="102" viewBox="0 0 191 102" fill="none" xmlns="http://www.w3.org/2000/svg">
<path d="M46.9015 25V6.35197H54.4403C55.9847 6.35197 57.2805 6.61909 58.3275 7.15326C59.3811 7.68742 60.1762 8.42199 60.7128 9.35676C61.256 10.2855 61.5276 11.3418 61.5276 12.5255C61.5276 13.7213 61.256 14.7836 60.7128 15.7125C60.1697 16.6411 59.368 17.3726 58.3079 17.9068C57.2477 18.4349 55.9421 18.699 54.3912 18.699H49.3948V15.9218H53.9004C54.8035 15.9218 55.543 15.7761 56.1188 15.4848C56.6947 15.1934 57.1201 14.7928 57.395 14.2828C57.6764 13.7729 57.817 13.1871 57.817 12.5255C57.817 11.8638 57.6764 11.2811 57.395 10.7772C57.1201 10.2734 56.6915 9.88184 56.1091 9.60261C55.5331 9.3173 54.7904 9.17469 53.8808 9.17469H50.5433V25H46.9015ZM64.6908 25V6.35197H77.7663V9.18376H68.3326V14.2464H77.0887V17.0782H68.3326V22.1682H77.8451V25H64.6908ZM81.4814 25V6.35197H89.0198C90.5647 6.35197 91.8599 6.60082 92.9072 7.09865C93.9608 7.5964 94.7562 8.29445 95.2927 9.19284C95.8354 10.0852 96.1076 11.1263 96.1076 12.3161C96.1076 13.5119 95.8323 14.5499 95.2826 15.4301C94.7398 16.3043 93.9381 16.9811 92.8776 17.4606C91.8178 17.9341 90.5155 18.1709 88.9707 18.1709H83.6017V15.3664H88.4802C89.3832 15.3664 90.1225 15.2511 90.698 15.0204C91.2751 14.7836 91.7001 14.4407 91.9746 13.9915C92.2561 13.5362 92.3972 12.9778 92.3972 12.3161C92.3972 11.6544 92.2561 11.0898 91.9746 10.6225C91.6938 10.149 91.2649 9.79084 90.6887 9.54799C90.1132 9.29907 89.37 9.17469 88.4607 9.17469H85.1231V25H81.4814ZM91.867 16.5501L96.843 25H92.7801L87.8915 16.5501H91.867ZM99.4592 25V6.35197H112.338V9.18376H103.102V14.2464H111.455V17.0782H103.102V25H99.4592ZM115.657 25V6.35197H128.731V9.18376H119.298V14.2464H128.054V17.0782H119.298V22.1682H128.81V25H115.657ZM149.654 12.6438H145.983C145.879 12.0854 145.686 11.5906 145.404 11.1597C145.122 10.7226 144.773 10.3523 144.353 10.0488C143.935 9.7453 143.457 9.51761 142.921 9.36592C142.39 9.20807 141.818 9.12915 141.203 9.12915C140.11 9.12915 139.142 9.38407 138.297 9.89399C137.453 10.3978 136.792 11.1384 136.314 12.1158C135.837 13.087 135.598 14.2737 135.598 15.6759C135.598 17.1025 135.837 18.3044 136.314 19.2817C136.798 20.253 137.46 20.9875 138.297 21.4852C139.142 21.977 140.107 22.2228 141.193 22.2228C141.795 22.2228 142.358 22.15 142.882 22.0043C143.411 21.8525 143.885 21.6309 144.304 21.3396C144.73 21.0482 145.086 20.6901 145.375 20.2651C145.669 19.8402 145.872 19.3546 145.983 18.8082L149.654 18.8265C149.517 19.7128 149.219 20.5444 148.761 21.3214C148.31 22.0984 147.717 22.7844 146.984 23.3792C146.252 23.9681 145.394 24.4294 144.413 24.7632C143.431 25.091 142.342 25.2549 141.144 25.2549C139.377 25.2549 137.8 24.8755 136.412 24.1168C135.025 23.3579 133.933 22.2623 133.134 20.8297C132.336 19.3971 131.936 17.6791 131.936 15.6759C131.936 13.6667 132.339 11.9488 133.143 10.5223C133.949 9.08968 135.045 7.99399 136.432 7.23519C137.819 6.4764 139.391 6.09702 141.144 6.09702C142.263 6.09702 143.304 6.24271 144.266 6.53409C145.227 6.82544 146.084 7.25339 146.837 7.81792C147.59 8.37638 148.208 9.06238 148.693 9.87576C149.183 10.6831 149.504 11.6058 149.654 12.6438ZM152.106 9.18376V6.35197H168.145V9.18376H161.932V25H158.32V9.18376H152.106Z" fill="#202020"/>
<path d="M4.49194 9.29483L0.345581 4.80768H32.4797V47.4359L28.3334 42.6282L27.6423 9.29483H4.49194Z" fill="#202020"/>
<path d="M32.4797 50H0L0.345529 4.80768L4.49187 9.29483V45.8333L32.4797 50Z" fill="#00A2FC"/>
<path d="M17.9674 27.8846V25.9615H25.9146V27.8846H17.9674Z" fill="#202020"/>
<path d="M51.7834 47.6923H48.4357L48.457 45.4207H51.7834C52.6861 45.4207 53.443 45.2244 54.0543 44.8317C54.6656 44.432 55.1276 43.8607 55.4403 43.1174C55.7531 42.3673 55.9094 41.4698 55.9094 40.4251V39.6364C55.9094 38.8301 55.8205 38.1184 55.6429 37.5015C55.4652 36.8845 55.2022 36.3657 54.854 35.945C54.5128 35.5243 54.0898 35.2053 53.5852 34.988C53.0806 34.7706 52.5013 34.6619 51.8474 34.6619H48.3717V32.3798H51.8474C52.8851 32.3798 53.8305 32.5516 54.6833 32.8951C55.5434 33.2387 56.2861 33.733 56.9116 34.378C57.5442 35.016 58.0275 35.7802 58.3616 36.6707C58.7027 37.561 58.8734 38.5567 58.8734 39.6574V40.4251C58.8734 41.5189 58.7027 42.5145 58.3616 43.4119C58.0275 44.3024 57.5442 45.0666 56.9116 45.7046C56.2861 46.3426 55.5398 46.8334 54.6727 47.177C53.8056 47.5205 52.8424 47.6923 51.7834 47.6923ZM50.0776 32.3798V47.6923H47.1456V32.3798H50.0776ZM73.9381 39.6469V40.4357C73.9381 41.5925 73.7817 42.6337 73.469 43.5592C73.1562 44.4777 72.712 45.2594 72.1363 45.9044C71.5606 46.5494 70.8747 47.0437 70.0786 47.3873C69.2826 47.7308 68.3977 47.9026 67.4239 47.9026C66.4643 47.9026 65.583 47.7308 64.7799 47.3873C63.9837 47.0437 63.2943 46.5494 62.7115 45.9044C62.1286 45.2594 61.6774 44.4777 61.3575 43.5592C61.0376 42.6337 60.8777 41.5925 60.8777 40.4357V39.6469C60.8777 38.483 61.0376 37.4419 61.3575 36.5234C61.6774 35.605 62.1251 34.8232 62.7009 34.1781C63.2765 33.5261 63.9625 33.0283 64.7585 32.6847C65.5617 32.3412 66.443 32.1694 67.4026 32.1694C68.3764 32.1694 69.2612 32.3412 70.0573 32.6847C70.8534 33.0283 71.5392 33.5261 72.115 34.1781C72.6978 34.8232 73.1456 35.605 73.4584 36.5234C73.7782 37.4419 73.9381 38.483 73.9381 39.6469ZM70.9742 40.4357V39.6259C70.9742 38.7915 70.896 38.0589 70.7396 37.4278C70.5832 36.7898 70.3523 36.2535 70.0467 35.8188C69.741 35.384 69.3643 35.058 68.9165 34.8407C68.4687 34.6164 67.9641 34.5042 67.4026 34.5042C66.834 34.5042 66.3294 34.6164 65.8886 34.8407C65.4551 35.058 65.0855 35.384 64.7799 35.8188C64.4742 36.2535 64.2397 36.7898 64.0761 37.4278C63.9198 38.0589 63.8416 38.7915 63.8416 39.6259V40.4357C63.8416 41.263 63.9198 41.9957 64.0761 42.6337C64.2397 43.2717 64.4742 43.8116 64.7799 44.2533C65.0926 44.688 65.4693 45.0175 65.91 45.2419C66.3506 45.4662 66.8553 45.5784 67.4239 45.5784C67.9925 45.5784 68.4972 45.4662 68.9378 45.2419C69.3785 45.0175 69.7481 44.688 70.0467 44.2533C70.3523 43.8116 70.5832 43.2717 70.7396 42.6337C70.896 41.9957 70.9742 41.263 70.9742 40.4357ZM88.9918 39.6469V40.4357C88.9918 41.5925 88.8359 42.6337 88.5232 43.5592C88.2105 44.4777 87.766 45.2594 87.1905 45.9044C86.6149 46.5494 85.9287 47.0437 85.1325 47.3873C84.3363 47.7308 83.452 47.9026 82.478 47.9026C81.5188 47.9026 80.6369 47.7308 79.8337 47.3873C79.0383 47.0437 78.3481 46.5494 77.7656 45.9044C77.1828 45.2594 76.7314 44.4777 76.4116 43.5592C76.0917 42.6337 75.9319 41.5925 75.9319 40.4357V39.6469C75.9319 38.483 76.0917 37.4419 76.4116 36.5234C76.7314 35.605 77.1792 34.8232 77.7547 34.1781C78.331 33.5261 79.0164 33.0283 79.8126 32.6847C80.6158 32.3412 81.497 32.1694 82.457 32.1694C83.4302 32.1694 84.3153 32.3412 85.1115 32.6847C85.9077 33.0283 86.5931 33.5261 87.1694 34.1781C87.7519 34.8232 88.1995 35.605 88.5122 36.5234C88.832 37.4419 88.9918 38.483 88.9918 39.6469ZM86.0285 40.4357V39.6259C86.0285 38.7915 85.9498 38.0589 85.7938 37.4278C85.6371 36.7898 85.4062 36.2535 85.1005 35.8188C84.7949 35.384 84.4182 35.058 83.9706 34.8407C83.523 34.6164 83.0184 34.5042 82.457 34.5042C81.8877 34.5042 81.3832 34.6164 80.9426 34.8407C80.509 35.058 80.1394 35.384 79.8337 35.8188C79.528 36.2535 79.294 36.7898 79.1303 37.4278C78.9735 38.0589 78.8955 38.7915 78.8955 39.6259V40.4357C78.8955 41.263 78.9735 41.9957 79.1303 42.6337C79.294 43.2717 79.528 43.8116 79.8337 44.2533C80.1464 44.688 80.523 45.0175 80.9644 45.2419C81.405 45.4662 81.9095 45.5784 82.478 45.5784C83.0465 45.5784 83.5511 45.4662 83.9916 45.2419C84.4322 45.0175 84.8019 44.688 85.1005 44.2533C85.4062 43.8116 85.6371 43.2717 85.7938 42.6337C85.9498 41.9957 86.0285 41.263 86.0285 40.4357ZM91.4763 32.3798H97.116C98.2958 32.3798 99.3088 32.555 100.155 32.9056C101.001 33.2562 101.651 33.775 102.106 34.4621C102.561 35.1492 102.788 35.994 102.788 36.9967C102.788 37.789 102.646 38.476 102.362 39.058C102.077 39.6399 101.676 40.1272 101.157 40.5198C100.645 40.9124 100.041 41.2209 99.3447 41.4453L98.4276 41.908H93.4485L93.4274 39.6259H97.1479C97.7523 39.6259 98.2537 39.5207 98.6514 39.3104C99.0499 39.1 99.3478 38.809 99.5474 38.4375C99.7533 38.0659 99.8562 37.6417 99.8562 37.165C99.8562 36.6531 99.7572 36.2114 99.5576 35.8398C99.3587 35.4612 99.0569 35.1703 98.6514 34.9669C98.2467 34.7636 97.7344 34.6619 97.116 34.6619H94.4084V47.6923H91.4763V32.3798ZM100.24 47.6923L96.6473 40.8353L99.7494 40.8248L103.386 47.5451V47.6923H100.24ZM113.482 43.7169C113.482 43.4224 113.436 43.1595 113.343 42.9281C113.258 42.6897 113.098 42.476 112.864 42.2867C112.636 42.0903 112.312 41.9011 111.893 41.7187C111.481 41.5294 110.948 41.3331 110.294 41.1298C109.569 40.9054 108.894 40.6531 108.268 40.3726C107.643 40.0921 107.092 39.7661 106.616 39.3945C106.147 39.0229 105.78 38.5952 105.518 38.1114C105.255 37.6207 105.123 37.0527 105.123 36.4077C105.123 35.7767 105.258 35.2018 105.529 34.683C105.805 34.1641 106.196 33.7189 106.701 33.3474C107.206 32.9687 107.799 32.6777 108.482 32.4744C109.171 32.2711 109.931 32.1694 110.763 32.1694C111.915 32.1694 112.91 32.3763 113.749 32.79C114.594 33.2036 115.248 33.7645 115.71 34.4727C116.172 35.1807 116.403 35.9765 116.403 36.86H113.482C113.482 36.3832 113.379 35.9625 113.172 35.5979C112.974 35.2334 112.668 34.9459 112.256 34.7355C111.851 34.5252 111.339 34.42 110.721 34.42C110.123 34.42 109.626 34.5077 109.228 34.683C108.837 34.8583 108.542 35.0967 108.343 35.3981C108.151 35.6996 108.055 36.0361 108.055 36.4077C108.055 36.6882 108.122 36.9406 108.258 37.165C108.393 37.3823 108.596 37.5891 108.865 37.7854C109.135 37.9747 109.47 38.1535 109.868 38.3218C110.273 38.483 110.742 38.6443 111.275 38.8056C112.127 39.058 112.874 39.3384 113.514 39.6469C114.16 39.9554 114.697 40.306 115.123 40.6986C115.557 41.0912 115.881 41.5329 116.094 42.0237C116.314 42.5145 116.424 43.0719 116.424 43.6959C116.424 44.355 116.293 44.9439 116.03 45.4627C115.767 45.9815 115.39 46.4233 114.9 46.7878C114.409 47.1524 113.82 47.4294 113.13 47.6187C112.448 47.808 111.684 47.9026 110.838 47.9026C110.084 47.9026 109.338 47.8044 108.599 47.6081C107.867 47.4048 107.202 47.1034 106.605 46.7037C106.008 46.2971 105.532 45.7852 105.176 45.1683C104.821 44.5443 104.644 43.815 104.644 42.9807H107.586C107.586 43.4645 107.665 43.8782 107.82 44.2217C107.984 44.5583 108.211 44.8352 108.503 45.0526C108.802 45.2629 109.149 45.4171 109.548 45.5153C109.945 45.6134 110.376 45.6625 110.838 45.6625C111.435 45.6625 111.925 45.5819 112.309 45.4207C112.7 45.2524 112.991 45.021 113.183 44.7265C113.382 44.432 113.482 44.0955 113.482 43.7169Z" fill="#202020"/>
<path d="M2.5293 80.7168L7.43066 73.0469H8.75V83H7.43066V75.3232L2.5293 83H1.2168V73.0469H2.5293V80.7168ZM15.9756 78.8096V79.835H12.0654V78.8096H15.9756ZM12.332 75.6035V83H11.0674V75.6035H12.332ZM17.001 75.6035V83H15.7295V75.6035H17.001ZM22.0527 75.6035V83H20.7812V75.6035H22.0527ZM24.5342 75.6035V76.6289H18.3477V75.6035H24.5342ZM28.3008 83.1367C27.7858 83.1367 27.3187 83.0501 26.8994 82.877C26.4847 82.6992 26.127 82.4508 25.8262 82.1318C25.5299 81.8128 25.3021 81.4346 25.1426 80.9971C24.9831 80.5596 24.9033 80.0811 24.9033 79.5615V79.2744C24.9033 78.6729 24.9922 78.1374 25.1699 77.668C25.3477 77.194 25.5892 76.793 25.8945 76.4648C26.1999 76.1367 26.5462 75.8883 26.9336 75.7197C27.321 75.5511 27.722 75.4668 28.1367 75.4668C28.6654 75.4668 29.1211 75.5579 29.5039 75.7402C29.8913 75.9225 30.208 76.1777 30.4541 76.5059C30.7002 76.8294 30.8825 77.2122 31.001 77.6543C31.1195 78.0918 31.1787 78.5703 31.1787 79.0898V79.6572H25.6553V78.625H29.9141V78.5293C29.8958 78.2012 29.8275 77.8822 29.709 77.5723C29.5951 77.2624 29.4128 77.0072 29.1621 76.8066C28.9115 76.6061 28.5697 76.5059 28.1367 76.5059C27.8496 76.5059 27.5853 76.5674 27.3438 76.6904C27.1022 76.8089 26.8949 76.9867 26.7217 77.2236C26.5485 77.4606 26.4141 77.75 26.3184 78.0918C26.2227 78.4336 26.1748 78.8278 26.1748 79.2744V79.5615C26.1748 79.9124 26.2227 80.2428 26.3184 80.5527C26.4186 80.8581 26.5622 81.127 26.749 81.3594C26.9404 81.5918 27.1706 81.7741 27.4395 81.9062C27.7129 82.0384 28.0228 82.1045 28.3691 82.1045C28.8158 82.1045 29.194 82.0133 29.5039 81.8311C29.8138 81.6488 30.085 81.4049 30.3174 81.0996L31.083 81.708C30.9235 81.9495 30.7207 82.1797 30.4746 82.3984C30.2285 82.6172 29.9255 82.7949 29.5654 82.9316C29.21 83.0684 28.7884 83.1367 28.3008 83.1367ZM33.9199 77.0254V85.8438H32.6484V75.6035H33.8105L33.9199 77.0254ZM38.9033 79.2402V79.3838C38.9033 79.9215 38.8395 80.4206 38.7119 80.8809C38.5843 81.3366 38.3975 81.7331 38.1514 82.0703C37.9098 82.4076 37.6113 82.6696 37.2559 82.8564C36.9004 83.0433 36.4925 83.1367 36.0322 83.1367C35.5628 83.1367 35.1481 83.0592 34.7881 82.9043C34.4281 82.7493 34.1227 82.5238 33.8721 82.2275C33.6214 81.9313 33.4209 81.5758 33.2705 81.1611C33.1247 80.7464 33.0244 80.2793 32.9697 79.7598V78.9941C33.0244 78.4473 33.127 77.9574 33.2773 77.5244C33.4277 77.0915 33.626 76.7223 33.8721 76.417C34.1227 76.1071 34.4258 75.8724 34.7812 75.7129C35.1367 75.5488 35.5469 75.4668 36.0117 75.4668C36.4766 75.4668 36.889 75.5579 37.249 75.7402C37.609 75.918 37.9121 76.1732 38.1582 76.5059C38.4043 76.8385 38.5889 77.2373 38.7119 77.7021C38.8395 78.1624 38.9033 78.6751 38.9033 79.2402ZM37.6318 79.3838V79.2402C37.6318 78.8711 37.5931 78.5247 37.5156 78.2012C37.4382 77.873 37.3174 77.5859 37.1533 77.3398C36.9938 77.0892 36.7887 76.8932 36.5381 76.752C36.2874 76.6061 35.9889 76.5332 35.6426 76.5332C35.3236 76.5332 35.0456 76.5879 34.8086 76.6973C34.5762 76.8066 34.3779 76.9548 34.2139 77.1416C34.0498 77.3239 33.9154 77.5335 33.8105 77.7705C33.7103 78.0029 33.6351 78.2445 33.585 78.4951V80.2656C33.6761 80.5846 33.8037 80.8854 33.9678 81.168C34.1318 81.446 34.3506 81.6715 34.624 81.8447C34.8975 82.0133 35.2415 82.0977 35.6562 82.0977C35.998 82.0977 36.292 82.027 36.5381 81.8857C36.7887 81.7399 36.9938 81.5417 37.1533 81.291C37.3174 81.0404 37.4382 80.7533 37.5156 80.4297C37.5931 80.1016 37.6318 79.7529 37.6318 79.3838ZM45.5342 78.8096V79.835H41.624V78.8096H45.5342ZM41.8906 75.6035V83H40.626V75.6035H41.8906ZM46.5596 75.6035V83H45.2881V75.6035H46.5596ZM51.666 83.1367C51.151 83.1367 50.6839 83.0501 50.2646 82.877C49.8499 82.6992 49.4922 82.4508 49.1914 82.1318C48.8952 81.8128 48.6673 81.4346 48.5078 80.9971C48.3483 80.5596 48.2686 80.0811 48.2686 79.5615V79.2744C48.2686 78.6729 48.3574 78.1374 48.5352 77.668C48.7129 77.194 48.9544 76.793 49.2598 76.4648C49.5651 76.1367 49.9115 75.8883 50.2988 75.7197C50.6862 75.5511 51.0872 75.4668 51.502 75.4668C52.0306 75.4668 52.4863 75.5579 52.8691 75.7402C53.2565 75.9225 53.5732 76.1777 53.8193 76.5059C54.0654 76.8294 54.2477 77.2122 54.3662 77.6543C54.4847 78.0918 54.5439 78.5703 54.5439 79.0898V79.6572H49.0205V78.625H53.2793V78.5293C53.2611 78.2012 53.1927 77.8822 53.0742 77.5723C52.9603 77.2624 52.778 77.0072 52.5273 76.8066C52.2767 76.6061 51.9349 76.5059 51.502 76.5059C51.2148 76.5059 50.9505 76.5674 50.709 76.6904C50.4674 76.8089 50.2601 76.9867 50.0869 77.2236C49.9137 77.4606 49.7793 77.75 49.6836 78.0918C49.5879 78.4336 49.54 78.8278 49.54 79.2744V79.5615C49.54 79.9124 49.5879 80.2428 49.6836 80.5527C49.7839 80.8581 49.9274 81.127 50.1143 81.3594C50.3057 81.5918 50.5358 81.7741 50.8047 81.9062C51.0781 82.0384 51.388 82.1045 51.7344 82.1045C52.181 82.1045 52.5592 82.0133 52.8691 81.8311C53.179 81.6488 53.4502 81.4049 53.6826 81.0996L54.4482 81.708C54.2887 81.9495 54.0859 82.1797 53.8398 82.3984C53.5938 82.6172 53.2907 82.7949 52.9307 82.9316C52.5752 83.0684 52.1536 83.1367 51.666 83.1367ZM58.9531 75.6035V83H57.6816V75.6035H58.9531ZM61.4346 75.6035V76.6289H55.248V75.6035H61.4346ZM65.3105 78.249V79.2881H61.9746V78.249H65.3105ZM70.7998 81.3184L73.3154 75.6035H74.5322L71.2373 83H70.3623L67.0811 75.6035H68.2979L70.7998 81.3184ZM67.9287 75.6035V83H66.6641V75.6035H67.9287ZM73.6299 83V75.6035H74.9014V83H73.6299ZM81.2998 81.7354V77.9277C81.2998 77.6361 81.2406 77.3831 81.1221 77.1689C81.0081 76.9502 80.835 76.7816 80.6025 76.6631C80.3701 76.5446 80.083 76.4854 79.7412 76.4854C79.4222 76.4854 79.1419 76.54 78.9004 76.6494C78.6634 76.7588 78.4766 76.9023 78.3398 77.0801C78.2077 77.2578 78.1416 77.4492 78.1416 77.6543H76.877C76.877 77.39 76.9453 77.1279 77.082 76.8682C77.2188 76.6084 77.4147 76.3737 77.6699 76.1641C77.9297 75.9499 78.2396 75.7812 78.5996 75.6582C78.9642 75.5306 79.3698 75.4668 79.8164 75.4668C80.3542 75.4668 80.8281 75.5579 81.2383 75.7402C81.653 75.9225 81.9766 76.1982 82.209 76.5674C82.446 76.932 82.5645 77.39 82.5645 77.9414V81.3867C82.5645 81.6328 82.585 81.8949 82.626 82.1729C82.6715 82.4508 82.7376 82.6901 82.8242 82.8906V83H81.5049C81.4411 82.8542 81.391 82.6605 81.3545 82.4189C81.318 82.1729 81.2998 81.945 81.2998 81.7354ZM81.5186 78.5156L81.5322 79.4043H80.2539C79.8939 79.4043 79.5726 79.4339 79.29 79.4932C79.0075 79.5479 78.7705 79.6322 78.5791 79.7461C78.3877 79.86 78.2419 80.0036 78.1416 80.1768C78.0413 80.3454 77.9912 80.5436 77.9912 80.7715C77.9912 81.0039 78.0436 81.2158 78.1484 81.4072C78.2533 81.5986 78.4105 81.7513 78.6201 81.8652C78.8343 81.9746 79.0964 82.0293 79.4062 82.0293C79.7936 82.0293 80.1354 81.9473 80.4316 81.7832C80.7279 81.6191 80.9626 81.4186 81.1357 81.1816C81.3135 80.9447 81.4092 80.7145 81.4229 80.4912L81.9629 81.0996C81.931 81.291 81.8444 81.5029 81.7031 81.7354C81.5618 81.9678 81.3727 82.1911 81.1357 82.4053C80.9033 82.6149 80.6253 82.7904 80.3018 82.9316C79.9827 83.0684 79.6227 83.1367 79.2217 83.1367C78.7204 83.1367 78.2806 83.0387 77.9023 82.8428C77.5286 82.6468 77.237 82.3848 77.0273 82.0566C76.8223 81.724 76.7197 81.3525 76.7197 80.9424C76.7197 80.5459 76.7972 80.1973 76.9521 79.8965C77.1071 79.5911 77.3304 79.3382 77.6221 79.1377C77.9137 78.9326 78.2646 78.7777 78.6748 78.6729C79.085 78.568 79.543 78.5156 80.0488 78.5156H81.5186ZM89.332 75.6035V76.6494H85.9141V83H84.6494V75.6035H89.332ZM94.7939 81.7354V77.9277C94.7939 77.6361 94.7347 77.3831 94.6162 77.1689C94.5023 76.9502 94.3291 76.7816 94.0967 76.6631C93.8643 76.5446 93.5771 76.4854 93.2354 76.4854C92.9163 76.4854 92.6361 76.54 92.3945 76.6494C92.1576 76.7588 91.9707 76.9023 91.834 77.0801C91.7018 77.2578 91.6357 77.4492 91.6357 77.6543H90.3711C90.3711 77.39 90.4395 77.1279 90.5762 76.8682C90.7129 76.6084 90.9089 76.3737 91.1641 76.1641C91.4238 75.9499 91.7337 75.7812 92.0938 75.6582C92.4583 75.5306 92.8639 75.4668 93.3105 75.4668C93.8483 75.4668 94.3223 75.5579 94.7324 75.7402C95.1471 75.9225 95.4707 76.1982 95.7031 76.5674C95.9401 76.932 96.0586 77.39 96.0586 77.9414V81.3867C96.0586 81.6328 96.0791 81.8949 96.1201 82.1729C96.1657 82.4508 96.2318 82.6901 96.3184 82.8906V83H94.999C94.9352 82.8542 94.8851 82.6605 94.8486 82.4189C94.8122 82.1729 94.7939 81.945 94.7939 81.7354ZM95.0127 78.5156L95.0264 79.4043H93.748C93.388 79.4043 93.0667 79.4339 92.7842 79.4932C92.5016 79.5479 92.2646 79.6322 92.0732 79.7461C91.8818 79.86 91.736 80.0036 91.6357 80.1768C91.5355 80.3454 91.4854 80.5436 91.4854 80.7715C91.4854 81.0039 91.5378 81.2158 91.6426 81.4072C91.7474 81.5986 91.9046 81.7513 92.1143 81.8652C92.3285 81.9746 92.5905 82.0293 92.9004 82.0293C93.2878 82.0293 93.6296 81.9473 93.9258 81.7832C94.222 81.6191 94.4567 81.4186 94.6299 81.1816C94.8076 80.9447 94.9033 80.7145 94.917 80.4912L95.457 81.0996C95.4251 81.291 95.3385 81.5029 95.1973 81.7354C95.056 81.9678 94.8669 82.1911 94.6299 82.4053C94.3975 82.6149 94.1195 82.7904 93.7959 82.9316C93.4769 83.0684 93.1169 83.1367 92.7158 83.1367C92.2145 83.1367 91.7747 83.0387 91.3965 82.8428C91.0228 82.6468 90.7311 82.3848 90.5215 82.0566C90.3164 81.724 90.2139 81.3525 90.2139 80.9424C90.2139 80.5459 90.2913 80.1973 90.4463 79.8965C90.6012 79.5911 90.8245 79.3382 91.1162 79.1377C91.4079 78.9326 91.7588 78.7777 92.1689 78.6729C92.5791 78.568 93.0371 78.5156 93.543 78.5156H95.0127ZM100.81 79.4658H99.4492V78.6865H100.707C101.058 78.6865 101.336 78.6432 101.541 78.5566C101.746 78.4655 101.892 78.3402 101.979 78.1807C102.065 78.0212 102.108 77.8343 102.108 77.6201C102.108 77.4287 102.058 77.2487 101.958 77.0801C101.862 76.9069 101.707 76.7679 101.493 76.6631C101.279 76.5537 100.992 76.499 100.632 76.499C100.34 76.499 100.076 76.5514 99.8389 76.6562C99.6019 76.7565 99.4128 76.8955 99.2715 77.0732C99.1348 77.2464 99.0664 77.4424 99.0664 77.6611H97.8018C97.8018 77.21 97.9294 76.8226 98.1846 76.499C98.4443 76.1709 98.7884 75.918 99.2168 75.7402C99.6497 75.5625 100.121 75.4736 100.632 75.4736C101.06 75.4736 101.443 75.5215 101.78 75.6172C102.122 75.7083 102.411 75.8451 102.648 76.0273C102.885 76.2051 103.065 76.4284 103.188 76.6973C103.316 76.9616 103.38 77.2692 103.38 77.6201C103.38 77.8708 103.321 78.1077 103.202 78.3311C103.084 78.5544 102.913 78.7526 102.689 78.9258C102.466 79.0944 102.195 79.2266 101.876 79.3223C101.562 79.418 101.206 79.4658 100.81 79.4658ZM99.4492 78.9873H100.81C101.252 78.9873 101.641 79.0306 101.979 79.1172C102.316 79.1992 102.598 79.3223 102.826 79.4863C103.054 79.6504 103.225 79.8532 103.339 80.0947C103.457 80.3317 103.517 80.6051 103.517 80.915C103.517 81.2614 103.446 81.5736 103.305 81.8516C103.168 82.125 102.972 82.3574 102.717 82.5488C102.462 82.7402 102.156 82.8861 101.801 82.9863C101.45 83.0866 101.06 83.1367 100.632 83.1367C100.153 83.1367 99.6885 83.0547 99.2373 82.8906C98.7861 82.7266 98.4147 82.4736 98.123 82.1318C97.8314 81.7855 97.6855 81.3457 97.6855 80.8125H98.9502C98.9502 81.0358 99.0208 81.2477 99.1621 81.4482C99.3034 81.6488 99.4993 81.8105 99.75 81.9336C100.005 82.0566 100.299 82.1182 100.632 82.1182C100.987 82.1182 101.284 82.0635 101.521 81.9541C101.757 81.8447 101.935 81.6989 102.054 81.5166C102.177 81.3343 102.238 81.1361 102.238 80.9219C102.238 80.6439 102.184 80.4206 102.074 80.252C101.965 80.0833 101.796 79.9603 101.568 79.8828C101.345 79.8008 101.058 79.7598 100.707 79.7598H99.4492V78.9873ZM106.524 80.9971L109.936 75.6035H111.207V83H109.936V77.6064L106.524 83H105.267V75.6035H106.524V80.9971ZM118.255 78.8096V79.835H114.345V78.8096H118.255ZM114.611 75.6035V83H113.347V75.6035H114.611ZM119.28 75.6035V83H118.009V75.6035H119.28ZM126.123 75.6035H127.388L127.278 78.3721C127.251 79.0739 127.171 79.68 127.039 80.1904C126.907 80.7008 126.738 81.1361 126.533 81.4961C126.328 81.8516 126.098 82.1501 125.843 82.3916C125.592 82.6331 125.332 82.8359 125.063 83H124.435L124.469 81.9678L124.729 81.9609C124.879 81.7832 125.025 81.6009 125.166 81.4141C125.307 81.2227 125.437 80.9971 125.556 80.7373C125.674 80.473 125.772 80.1517 125.85 79.7734C125.932 79.3906 125.984 78.9235 126.007 78.3721L126.123 75.6035ZM126.438 75.6035H130.888V83H129.623V76.7725H126.438V75.6035ZM124.147 81.9609H131.838V85.1807H130.573V83H125.412V85.1807H124.141L124.147 81.9609ZM136.712 79.7461H134.285L134.271 78.7344H136.254C136.646 78.7344 136.972 78.6956 137.231 78.6182C137.496 78.5407 137.694 78.4245 137.826 78.2695C137.958 78.1146 138.024 77.9232 138.024 77.6953C138.024 77.5176 137.986 77.3626 137.908 77.2305C137.835 77.0938 137.724 76.9821 137.573 76.8955C137.423 76.8044 137.236 76.7383 137.013 76.6973C136.794 76.6517 136.536 76.6289 136.24 76.6289H134.62V83H133.355V75.6035H136.24C136.71 75.6035 137.131 75.6445 137.505 75.7266C137.883 75.8086 138.204 75.9339 138.469 76.1025C138.738 76.2666 138.943 76.4762 139.084 76.7314C139.225 76.9867 139.296 77.2874 139.296 77.6338C139.296 77.8571 139.25 78.069 139.159 78.2695C139.068 78.4701 138.934 78.6478 138.756 78.8027C138.578 78.9577 138.359 79.0853 138.1 79.1855C137.84 79.2812 137.541 79.3428 137.204 79.3701L136.712 79.7461ZM136.712 83H133.827L134.456 81.9746H136.712C137.063 81.9746 137.354 81.9313 137.587 81.8447C137.819 81.7536 137.993 81.626 138.106 81.4619C138.225 81.2933 138.284 81.0928 138.284 80.8604C138.284 80.6279 138.225 80.4297 138.106 80.2656C137.993 80.097 137.819 79.9694 137.587 79.8828C137.354 79.7917 137.063 79.7461 136.712 79.7461H134.791L134.805 78.7344H137.204L137.662 79.1172C138.068 79.1491 138.412 79.2493 138.694 79.418C138.977 79.5866 139.191 79.8008 139.337 80.0605C139.483 80.3158 139.556 80.5938 139.556 80.8945C139.556 81.2409 139.49 81.5462 139.357 81.8105C139.23 82.0749 139.043 82.2959 138.797 82.4736C138.551 82.6468 138.252 82.779 137.901 82.8701C137.55 82.9567 137.154 83 136.712 83ZM144.32 83.1367C143.805 83.1367 143.338 83.0501 142.919 82.877C142.504 82.6992 142.146 82.4508 141.846 82.1318C141.549 81.8128 141.322 81.4346 141.162 80.9971C141.003 80.5596 140.923 80.0811 140.923 79.5615V79.2744C140.923 78.6729 141.012 78.1374 141.189 77.668C141.367 77.194 141.609 76.793 141.914 76.4648C142.219 76.1367 142.566 75.8883 142.953 75.7197C143.34 75.5511 143.742 75.4668 144.156 75.4668C144.685 75.4668 145.141 75.5579 145.523 75.7402C145.911 75.9225 146.228 76.1777 146.474 76.5059C146.72 76.8294 146.902 77.2122 147.021 77.6543C147.139 78.0918 147.198 78.5703 147.198 79.0898V79.6572H141.675V78.625H145.934V78.5293C145.915 78.2012 145.847 77.8822 145.729 77.5723C145.615 77.2624 145.432 77.0072 145.182 76.8066C144.931 76.6061 144.589 76.5059 144.156 76.5059C143.869 76.5059 143.605 76.5674 143.363 76.6904C143.122 76.8089 142.914 76.9867 142.741 77.2236C142.568 77.4606 142.434 77.75 142.338 78.0918C142.242 78.4336 142.194 78.8278 142.194 79.2744V79.5615C142.194 79.9124 142.242 80.2428 142.338 80.5527C142.438 80.8581 142.582 81.127 142.769 81.3594C142.96 81.5918 143.19 81.7741 143.459 81.9062C143.732 82.0384 144.042 82.1045 144.389 82.1045C144.835 82.1045 145.214 82.0133 145.523 81.8311C145.833 81.6488 146.104 81.4049 146.337 81.0996L147.103 81.708C146.943 81.9495 146.74 82.1797 146.494 82.3984C146.248 82.6172 145.945 82.7949 145.585 82.9316C145.229 83.0684 144.808 83.1367 144.32 83.1367ZM149.939 77.0254V85.8438H148.668V75.6035H149.83L149.939 77.0254ZM154.923 79.2402V79.3838C154.923 79.9215 154.859 80.4206 154.731 80.8809C154.604 81.3366 154.417 81.7331 154.171 82.0703C153.929 82.4076 153.631 82.6696 153.275 82.8564C152.92 83.0433 152.512 83.1367 152.052 83.1367C151.582 83.1367 151.168 83.0592 150.808 82.9043C150.448 82.7493 150.142 82.5238 149.892 82.2275C149.641 81.9313 149.44 81.5758 149.29 81.1611C149.144 80.7464 149.044 80.2793 148.989 79.7598V78.9941C149.044 78.4473 149.146 77.9574 149.297 77.5244C149.447 77.0915 149.646 76.7223 149.892 76.417C150.142 76.1071 150.445 75.8724 150.801 75.7129C151.156 75.5488 151.566 75.4668 152.031 75.4668C152.496 75.4668 152.909 75.5579 153.269 75.7402C153.629 75.918 153.932 76.1732 154.178 76.5059C154.424 76.8385 154.608 77.2373 154.731 77.7021C154.859 78.1624 154.923 78.6751 154.923 79.2402ZM153.651 79.3838V79.2402C153.651 78.8711 153.613 78.5247 153.535 78.2012C153.458 77.873 153.337 77.5859 153.173 77.3398C153.013 77.0892 152.808 76.8932 152.558 76.752C152.307 76.6061 152.008 76.5332 151.662 76.5332C151.343 76.5332 151.065 76.5879 150.828 76.6973C150.596 76.8066 150.397 76.9548 150.233 77.1416C150.069 77.3239 149.935 77.5335 149.83 77.7705C149.73 78.0029 149.655 78.2445 149.604 78.4951V80.2656C149.696 80.5846 149.823 80.8854 149.987 81.168C150.151 81.446 150.37 81.6715 150.644 81.8447C150.917 82.0133 151.261 82.0977 151.676 82.0977C152.018 82.0977 152.312 82.027 152.558 81.8857C152.808 81.7399 153.013 81.5417 153.173 81.291C153.337 81.0404 153.458 80.7533 153.535 80.4297C153.613 80.1016 153.651 79.7529 153.651 79.3838ZM159.605 83.1367C159.09 83.1367 158.623 83.0501 158.204 82.877C157.789 82.6992 157.432 82.4508 157.131 82.1318C156.835 81.8128 156.607 81.4346 156.447 80.9971C156.288 80.5596 156.208 80.0811 156.208 79.5615V79.2744C156.208 78.6729 156.297 78.1374 156.475 77.668C156.652 77.194 156.894 76.793 157.199 76.4648C157.505 76.1367 157.851 75.8883 158.238 75.7197C158.626 75.5511 159.027 75.4668 159.441 75.4668C159.97 75.4668 160.426 75.5579 160.809 75.7402C161.196 75.9225 161.513 76.1777 161.759 76.5059C162.005 76.8294 162.187 77.2122 162.306 77.6543C162.424 78.0918 162.483 78.5703 162.483 79.0898V79.6572H156.96V78.625H161.219V78.5293C161.201 78.2012 161.132 77.8822 161.014 77.5723C160.9 77.2624 160.717 77.0072 160.467 76.8066C160.216 76.6061 159.874 76.5059 159.441 76.5059C159.154 76.5059 158.89 76.5674 158.648 76.6904C158.407 76.8089 158.2 76.9867 158.026 77.2236C157.853 77.4606 157.719 77.75 157.623 78.0918C157.527 78.4336 157.479 78.8278 157.479 79.2744V79.5615C157.479 79.9124 157.527 80.2428 157.623 80.5527C157.723 80.8581 157.867 81.127 158.054 81.3594C158.245 81.5918 158.475 81.7741 158.744 81.9062C159.018 82.0384 159.327 82.1045 159.674 82.1045C160.12 82.1045 160.499 82.0133 160.809 81.8311C161.118 81.6488 161.39 81.4049 161.622 81.0996L162.388 81.708C162.228 81.9495 162.025 82.1797 161.779 82.3984C161.533 82.6172 161.23 82.7949 160.87 82.9316C160.515 83.0684 160.093 83.1367 159.605 83.1367ZM165.327 80.9971L168.738 75.6035H170.01V83H168.738V77.6064L165.327 83H164.069V75.6035H165.327V80.9971ZM168.048 72.9238H169.073C169.073 73.2793 168.991 73.596 168.827 73.874C168.663 74.1475 168.428 74.3617 168.123 74.5166C167.818 74.6715 167.455 74.749 167.036 74.749C166.403 74.749 165.901 74.5804 165.532 74.2432C165.168 73.9014 164.985 73.4616 164.985 72.9238H166.011C166.011 73.1927 166.088 73.4297 166.243 73.6348C166.398 73.8398 166.662 73.9424 167.036 73.9424C167.401 73.9424 167.66 73.8398 167.815 73.6348C167.97 73.4297 168.048 73.1927 168.048 72.9238ZM178.473 82.0977C178.773 82.0977 179.051 82.0361 179.307 81.9131C179.562 81.79 179.771 81.6214 179.936 81.4072C180.1 81.1885 180.193 80.9401 180.216 80.6621H181.419C181.396 81.0996 181.248 81.5075 180.975 81.8857C180.706 82.2594 180.353 82.5625 179.915 82.7949C179.478 83.0228 178.997 83.1367 178.473 83.1367C177.917 83.1367 177.431 83.0387 177.017 82.8428C176.606 82.6468 176.265 82.3779 175.991 82.0361C175.722 81.6943 175.52 81.3024 175.383 80.8604C175.251 80.4137 175.185 79.9421 175.185 79.4453V79.1582C175.185 78.6615 175.251 78.1921 175.383 77.75C175.52 77.3034 175.722 76.9092 175.991 76.5674C176.265 76.2256 176.606 75.9567 177.017 75.7607C177.431 75.5648 177.917 75.4668 178.473 75.4668C179.051 75.4668 179.557 75.5853 179.99 75.8223C180.423 76.0547 180.763 76.3737 181.009 76.7793C181.259 77.1803 181.396 77.6361 181.419 78.1465H180.216C180.193 77.8411 180.106 77.5654 179.956 77.3193C179.81 77.0732 179.61 76.8773 179.354 76.7314C179.104 76.5811 178.81 76.5059 178.473 76.5059C178.085 76.5059 177.759 76.5833 177.495 76.7383C177.235 76.8887 177.028 77.0938 176.873 77.3535C176.723 77.6087 176.613 77.8936 176.545 78.208C176.481 78.5179 176.449 78.8346 176.449 79.1582V79.4453C176.449 79.7689 176.481 80.0879 176.545 80.4023C176.609 80.7168 176.716 81.0016 176.866 81.2568C177.021 81.512 177.229 81.7171 177.488 81.8721C177.753 82.0225 178.081 82.0977 178.473 82.0977ZM2.29688 91.6035H3.56152L3.45215 94.3721C3.4248 95.0739 3.34505 95.68 3.21289 96.1904C3.08073 96.7008 2.91211 97.1361 2.70703 97.4961C2.50195 97.8516 2.27181 98.1501 2.0166 98.3916C1.76595 98.6331 1.50618 98.8359 1.2373 99H0.608398L0.642578 97.9678L0.902344 97.9609C1.05273 97.7832 1.19857 97.6009 1.33984 97.4141C1.48112 97.2227 1.611 96.9971 1.72949 96.7373C1.84798 96.473 1.94596 96.1517 2.02344 95.7734C2.10547 95.3906 2.15788 94.9235 2.18066 94.3721L2.29688 91.6035ZM2.61133 91.6035H7.06152V99H5.79688V92.7725H2.61133V91.6035ZM0.321289 97.9609H8.01172V101.181H6.74707V99H1.58594V101.181H0.314453L0.321289 97.9609ZM9.07812 95.3838V95.2266C9.07812 94.6934 9.1556 94.1989 9.31055 93.7432C9.46549 93.2829 9.6888 92.8841 9.98047 92.5469C10.2721 92.2051 10.6253 91.9408 11.04 91.7539C11.4548 91.5625 11.9196 91.4668 12.4346 91.4668C12.9541 91.4668 13.4212 91.5625 13.8359 91.7539C14.2552 91.9408 14.6107 92.2051 14.9023 92.5469C15.1986 92.8841 15.4242 93.2829 15.5791 93.7432C15.734 94.1989 15.8115 94.6934 15.8115 95.2266V95.3838C15.8115 95.917 15.734 96.4115 15.5791 96.8672C15.4242 97.3229 15.1986 97.7217 14.9023 98.0635C14.6107 98.4007 14.2575 98.665 13.8428 98.8564C13.4326 99.0433 12.9678 99.1367 12.4482 99.1367C11.9287 99.1367 11.4616 99.0433 11.0469 98.8564C10.6322 98.665 10.2767 98.4007 9.98047 98.0635C9.6888 97.7217 9.46549 97.3229 9.31055 96.8672C9.1556 96.4115 9.07812 95.917 9.07812 95.3838ZM10.3428 95.2266V95.3838C10.3428 95.7529 10.3861 96.1016 10.4727 96.4297C10.5592 96.7533 10.6891 97.0404 10.8623 97.291C11.04 97.5417 11.2611 97.7399 11.5254 97.8857C11.7897 98.027 12.0973 98.0977 12.4482 98.0977C12.7946 98.0977 13.0977 98.027 13.3574 97.8857C13.6217 97.7399 13.8405 97.5417 14.0137 97.291C14.1868 97.0404 14.3167 96.7533 14.4033 96.4297C14.4945 96.1016 14.54 95.7529 14.54 95.3838V95.2266C14.54 94.862 14.4945 94.5179 14.4033 94.1943C14.3167 93.8662 14.1846 93.5768 14.0068 93.3262C13.8337 93.071 13.6149 92.8704 13.3506 92.7246C13.0908 92.5788 12.7855 92.5059 12.4346 92.5059C12.0882 92.5059 11.7829 92.5788 11.5186 92.7246C11.2588 92.8704 11.04 93.071 10.8623 93.3262C10.6891 93.5768 10.5592 93.8662 10.4727 94.1943C10.3861 94.5179 10.3428 94.862 10.3428 95.2266ZM20.3574 98.0977C20.6582 98.0977 20.9362 98.0361 21.1914 97.9131C21.4466 97.79 21.6562 97.6214 21.8203 97.4072C21.9844 97.1885 22.0778 96.9401 22.1006 96.6621H23.3037C23.2809 97.0996 23.1328 97.5075 22.8594 97.8857C22.5905 98.2594 22.2373 98.5625 21.7998 98.7949C21.3623 99.0228 20.8815 99.1367 20.3574 99.1367C19.8014 99.1367 19.3161 99.0387 18.9014 98.8428C18.4912 98.6468 18.1494 98.3779 17.876 98.0361C17.6071 97.6943 17.4043 97.3024 17.2676 96.8604C17.1354 96.4137 17.0693 95.9421 17.0693 95.4453V95.1582C17.0693 94.6615 17.1354 94.1921 17.2676 93.75C17.4043 93.3034 17.6071 92.9092 17.876 92.5674C18.1494 92.2256 18.4912 91.9567 18.9014 91.7607C19.3161 91.5648 19.8014 91.4668 20.3574 91.4668C20.9362 91.4668 21.4421 91.5853 21.875 91.8223C22.3079 92.0547 22.6475 92.3737 22.8936 92.7793C23.1442 93.1803 23.2809 93.6361 23.3037 94.1465H22.1006C22.0778 93.8411 21.9912 93.5654 21.8408 93.3193C21.695 93.0732 21.4945 92.8773 21.2393 92.7314C20.9886 92.5811 20.6947 92.5059 20.3574 92.5059C19.9701 92.5059 19.6442 92.5833 19.3799 92.7383C19.1201 92.8887 18.9128 93.0938 18.7578 93.3535C18.6074 93.6087 18.498 93.8936 18.4297 94.208C18.3659 94.5179 18.334 94.8346 18.334 95.1582V95.4453C18.334 95.7689 18.3659 96.0879 18.4297 96.4023C18.4935 96.7168 18.6006 97.0016 18.751 97.2568C18.9059 97.512 19.1133 97.7171 19.373 97.8721C19.6374 98.0225 19.9655 98.0977 20.3574 98.0977ZM27.7402 91.6035V99H26.4688V91.6035H27.7402ZM30.2217 91.6035V92.6289H24.0352V91.6035H30.2217ZM35.7178 97.7354V93.9277C35.7178 93.6361 35.6585 93.3831 35.54 93.1689C35.4261 92.9502 35.2529 92.7816 35.0205 92.6631C34.7881 92.5446 34.501 92.4854 34.1592 92.4854C33.8402 92.4854 33.5599 92.54 33.3184 92.6494C33.0814 92.7588 32.8945 92.9023 32.7578 93.0801C32.6257 93.2578 32.5596 93.4492 32.5596 93.6543H31.2949C31.2949 93.39 31.3633 93.1279 31.5 92.8682C31.6367 92.6084 31.8327 92.3737 32.0879 92.1641C32.3477 91.9499 32.6576 91.7812 33.0176 91.6582C33.3822 91.5306 33.7878 91.4668 34.2344 91.4668C34.7721 91.4668 35.2461 91.5579 35.6562 91.7402C36.071 91.9225 36.3945 92.1982 36.627 92.5674C36.8639 92.932 36.9824 93.39 36.9824 93.9414V97.3867C36.9824 97.6328 37.0029 97.8949 37.0439 98.1729C37.0895 98.4508 37.1556 98.6901 37.2422 98.8906V99H35.9229C35.859 98.8542 35.8089 98.6605 35.7725 98.4189C35.736 98.1729 35.7178 97.945 35.7178 97.7354ZM35.9365 94.5156L35.9502 95.4043H34.6719C34.3118 95.4043 33.9906 95.4339 33.708 95.4932C33.4255 95.5479 33.1885 95.6322 32.9971 95.7461C32.8057 95.86 32.6598 96.0036 32.5596 96.1768C32.4593 96.3454 32.4092 96.5436 32.4092 96.7715C32.4092 97.0039 32.4616 97.2158 32.5664 97.4072C32.6712 97.5986 32.8285 97.7513 33.0381 97.8652C33.2523 97.9746 33.5143 98.0293 33.8242 98.0293C34.2116 98.0293 34.5534 97.9473 34.8496 97.7832C35.1458 97.6191 35.3805 97.4186 35.5537 97.1816C35.7314 96.9447 35.8271 96.7145 35.8408 96.4912L36.3809 97.0996C36.349 97.291 36.2624 97.5029 36.1211 97.7354C35.9798 97.9678 35.7907 98.1911 35.5537 98.4053C35.3213 98.6149 35.0433 98.7904 34.7197 98.9316C34.4007 99.0684 34.0407 99.1367 33.6396 99.1367C33.1383 99.1367 32.6986 99.0387 32.3203 98.8428C31.9466 98.6468 31.6549 98.3848 31.4453 98.0566C31.2402 97.724 31.1377 97.3525 31.1377 96.9424C31.1377 96.5459 31.2152 96.1973 31.3701 95.8965C31.5251 95.5911 31.7484 95.3382 32.04 95.1377C32.3317 94.9326 32.6826 94.7777 33.0928 94.6729C33.5029 94.568 33.9609 94.5156 34.4668 94.5156H35.9365ZM42.4443 95.7461H40.0176L40.0039 94.7344H41.9863C42.3783 94.7344 42.7041 94.6956 42.9639 94.6182C43.2282 94.5407 43.4264 94.4245 43.5586 94.2695C43.6908 94.1146 43.7568 93.9232 43.7568 93.6953C43.7568 93.5176 43.7181 93.3626 43.6406 93.2305C43.5677 93.0938 43.4561 92.9821 43.3057 92.8955C43.1553 92.8044 42.9684 92.7383 42.7451 92.6973C42.5264 92.6517 42.2689 92.6289 41.9727 92.6289H40.3525V99H39.0879V91.6035H41.9727C42.4421 91.6035 42.8636 91.6445 43.2373 91.7266C43.6156 91.8086 43.9368 91.9339 44.2012 92.1025C44.4701 92.2666 44.6751 92.4762 44.8164 92.7314C44.9577 92.9867 45.0283 93.2874 45.0283 93.6338C45.0283 93.8571 44.9827 94.069 44.8916 94.2695C44.8005 94.4701 44.666 94.6478 44.4883 94.8027C44.3105 94.9577 44.0918 95.0853 43.832 95.1855C43.5723 95.2812 43.2738 95.3428 42.9365 95.3701L42.4443 95.7461ZM42.4443 99H39.5596L40.1885 97.9746H42.4443C42.7952 97.9746 43.0869 97.9313 43.3193 97.8447C43.5518 97.7536 43.7249 97.626 43.8389 97.4619C43.9574 97.2933 44.0166 97.0928 44.0166 96.8604C44.0166 96.6279 43.9574 96.4297 43.8389 96.2656C43.7249 96.097 43.5518 95.9694 43.3193 95.8828C43.0869 95.7917 42.7952 95.7461 42.4443 95.7461H40.5234L40.5371 94.7344H42.9365L43.3945 95.1172C43.8001 95.1491 44.1442 95.2493 44.4268 95.418C44.7093 95.5866 44.9235 95.8008 45.0693 96.0605C45.2152 96.3158 45.2881 96.5938 45.2881 96.8945C45.2881 97.2409 45.222 97.5462 45.0898 97.8105C44.9622 98.0749 44.7754 98.2959 44.5293 98.4736C44.2832 98.6468 43.9847 98.779 43.6338 98.8701C43.2829 98.9567 42.8864 99 42.4443 99ZM48.3574 91.6035V99H47.0928V91.6035H48.3574ZM53.2109 91.6035L49.7041 95.8418H47.9336L47.7422 94.7344H49.1914L51.6729 91.6035H53.2109ZM51.8506 99L49.1299 95.6504L49.9434 94.7344L53.457 99H51.8506ZM54.0723 95.3838V95.2266C54.0723 94.6934 54.1497 94.1989 54.3047 93.7432C54.4596 93.2829 54.6829 92.8841 54.9746 92.5469C55.2663 92.2051 55.6195 91.9408 56.0342 91.7539C56.4489 91.5625 56.9137 91.4668 57.4287 91.4668C57.9482 91.4668 58.4154 91.5625 58.8301 91.7539C59.2493 91.9408 59.6048 92.2051 59.8965 92.5469C60.1927 92.8841 60.4183 93.2829 60.5732 93.7432C60.7282 94.1989 60.8057 94.6934 60.8057 95.2266V95.3838C60.8057 95.917 60.7282 96.4115 60.5732 96.8672C60.4183 97.3229 60.1927 97.7217 59.8965 98.0635C59.6048 98.4007 59.2516 98.665 58.8369 98.8564C58.4268 99.0433 57.9619 99.1367 57.4424 99.1367C56.9229 99.1367 56.4557 99.0433 56.041 98.8564C55.6263 98.665 55.2708 98.4007 54.9746 98.0635C54.6829 97.7217 54.4596 97.3229 54.3047 96.8672C54.1497 96.4115 54.0723 95.917 54.0723 95.3838ZM55.3369 95.2266V95.3838C55.3369 95.7529 55.3802 96.1016 55.4668 96.4297C55.5534 96.7533 55.6833 97.0404 55.8564 97.291C56.0342 97.5417 56.2552 97.7399 56.5195 97.8857C56.7839 98.027 57.0915 98.0977 57.4424 98.0977C57.7887 98.0977 58.0918 98.027 58.3516 97.8857C58.6159 97.7399 58.8346 97.5417 59.0078 97.291C59.181 97.0404 59.3109 96.7533 59.3975 96.4297C59.4886 96.1016 59.5342 95.7529 59.5342 95.3838V95.2266C59.5342 94.862 59.4886 94.5179 59.3975 94.1943C59.3109 93.8662 59.1787 93.5768 59.001 93.3262C58.8278 93.071 58.609 92.8704 58.3447 92.7246C58.085 92.5788 57.7796 92.5059 57.4287 92.5059C57.0824 92.5059 56.777 92.5788 56.5127 92.7246C56.2529 92.8704 56.0342 93.071 55.8564 93.3262C55.6833 93.5768 55.5534 93.8662 55.4668 94.1943C55.3802 94.5179 55.3369 94.862 55.3369 95.2266ZM63.7588 96.9971L67.1699 91.6035H68.4414V99H67.1699V93.6064L63.7588 99H62.501V91.6035H63.7588V96.9971ZM66.4795 88.9238H67.5049C67.5049 89.2793 67.4229 89.596 67.2588 89.874C67.0947 90.1475 66.86 90.3617 66.5547 90.5166C66.2493 90.6715 65.887 90.749 65.4678 90.749C64.8343 90.749 64.333 90.5804 63.9639 90.2432C63.5993 89.9014 63.417 89.4616 63.417 88.9238H64.4424C64.4424 89.1927 64.5199 89.4297 64.6748 89.6348C64.8298 89.8398 65.0941 89.9424 65.4678 89.9424C65.8324 89.9424 66.0921 89.8398 66.2471 89.6348C66.402 89.4297 66.4795 89.1927 66.4795 88.9238ZM77.417 95.7461H74.9902L74.9766 94.7344H76.959C77.3509 94.7344 77.6768 94.6956 77.9365 94.6182C78.2008 94.5407 78.3991 94.4245 78.5312 94.2695C78.6634 94.1146 78.7295 93.9232 78.7295 93.6953C78.7295 93.5176 78.6908 93.3626 78.6133 93.2305C78.5404 93.0938 78.4287 92.9821 78.2783 92.8955C78.1279 92.8044 77.9411 92.7383 77.7178 92.6973C77.499 92.6517 77.2415 92.6289 76.9453 92.6289H75.3252V99H74.0605V91.6035H76.9453C77.4147 91.6035 77.8363 91.6445 78.21 91.7266C78.5882 91.8086 78.9095 91.9339 79.1738 92.1025C79.4427 92.2666 79.6478 92.4762 79.7891 92.7314C79.9303 92.9867 80.001 93.2874 80.001 93.6338C80.001 93.8571 79.9554 94.069 79.8643 94.2695C79.7731 94.4701 79.6387 94.6478 79.4609 94.8027C79.2832 94.9577 79.0645 95.0853 78.8047 95.1855C78.5449 95.2812 78.2464 95.3428 77.9092 95.3701L77.417 95.7461ZM77.417 99H74.5322L75.1611 97.9746H77.417C77.7679 97.9746 78.0596 97.9313 78.292 97.8447C78.5244 97.7536 78.6976 97.626 78.8115 97.4619C78.93 97.2933 78.9893 97.0928 78.9893 96.8604C78.9893 96.6279 78.93 96.4297 78.8115 96.2656C78.6976 96.097 78.5244 95.9694 78.292 95.8828C78.0596 95.7917 77.7679 95.7461 77.417 95.7461H75.4961L75.5098 94.7344H77.9092L78.3672 95.1172C78.7728 95.1491 79.1169 95.2493 79.3994 95.418C79.682 95.5866 79.8962 95.8008 80.042 96.0605C80.1878 96.3158 80.2607 96.5938 80.2607 96.8945C80.2607 97.2409 80.1947 97.5462 80.0625 97.8105C79.9349 98.0749 79.748 98.2959 79.502 98.4736C79.2559 98.6468 78.9574 98.779 78.6064 98.8701C78.2555 98.9567 77.859 99 77.417 99ZM86.0371 89.0469H87.3154L90.5762 97.1611L93.8301 89.0469H95.1152L91.0684 99H90.0703L86.0371 89.0469ZM85.6201 89.0469H86.748L86.9326 95.1172V99H85.6201V89.0469ZM94.3975 89.0469H95.5254V99H94.2129V95.1172L94.3975 89.0469ZM97.3164 95.3838V95.2266C97.3164 94.6934 97.3939 94.1989 97.5488 93.7432C97.7038 93.2829 97.9271 92.8841 98.2188 92.5469C98.5104 92.2051 98.8636 91.9408 99.2783 91.7539C99.693 91.5625 100.158 91.4668 100.673 91.4668C101.192 91.4668 101.66 91.5625 102.074 91.7539C102.493 91.9408 102.849 92.2051 103.141 92.5469C103.437 92.8841 103.662 93.2829 103.817 93.7432C103.972 94.1989 104.05 94.6934 104.05 95.2266V95.3838C104.05 95.917 103.972 96.4115 103.817 96.8672C103.662 97.3229 103.437 97.7217 103.141 98.0635C102.849 98.4007 102.496 98.665 102.081 98.8564C101.671 99.0433 101.206 99.1367 100.687 99.1367C100.167 99.1367 99.6999 99.0433 99.2852 98.8564C98.8704 98.665 98.515 98.4007 98.2188 98.0635C97.9271 97.7217 97.7038 97.3229 97.5488 96.8672C97.3939 96.4115 97.3164 95.917 97.3164 95.3838ZM98.5811 95.2266V95.3838C98.5811 95.7529 98.6243 96.1016 98.7109 96.4297C98.7975 96.7533 98.9274 97.0404 99.1006 97.291C99.2783 97.5417 99.4993 97.7399 99.7637 97.8857C100.028 98.027 100.336 98.0977 100.687 98.0977C101.033 98.0977 101.336 98.027 101.596 97.8857C101.86 97.7399 102.079 97.5417 102.252 97.291C102.425 97.0404 102.555 96.7533 102.642 96.4297C102.733 96.1016 102.778 95.7529 102.778 95.3838V95.2266C102.778 94.862 102.733 94.5179 102.642 94.1943C102.555 93.8662 102.423 93.5768 102.245 93.3262C102.072 93.071 101.853 92.8704 101.589 92.7246C101.329 92.5788 101.024 92.5059 100.673 92.5059C100.326 92.5059 100.021 92.5788 99.7568 92.7246C99.4971 92.8704 99.2783 93.071 99.1006 93.3262C98.9274 93.5768 98.7975 93.8662 98.7109 94.1943C98.6243 94.5179 98.5811 94.862 98.5811 95.2266ZM108.596 98.0977C108.896 98.0977 109.174 98.0361 109.43 97.9131C109.685 97.79 109.895 97.6214 110.059 97.4072C110.223 97.1885 110.316 96.9401 110.339 96.6621H111.542C111.519 97.0996 111.371 97.5075 111.098 97.8857C110.829 98.2594 110.476 98.5625 110.038 98.7949C109.601 99.0228 109.12 99.1367 108.596 99.1367C108.04 99.1367 107.554 99.0387 107.14 98.8428C106.729 98.6468 106.388 98.3779 106.114 98.0361C105.845 97.6943 105.643 97.3024 105.506 96.8604C105.374 96.4137 105.308 95.9421 105.308 95.4453V95.1582C105.308 94.6615 105.374 94.1921 105.506 93.75C105.643 93.3034 105.845 92.9092 106.114 92.5674C106.388 92.2256 106.729 91.9567 107.14 91.7607C107.554 91.5648 108.04 91.4668 108.596 91.4668C109.174 91.4668 109.68 91.5853 110.113 91.8223C110.546 92.0547 110.886 92.3737 111.132 92.7793C111.382 93.1803 111.519 93.6361 111.542 94.1465H110.339C110.316 93.8411 110.229 93.5654 110.079 93.3193C109.933 93.0732 109.733 92.8773 109.478 92.7314C109.227 92.5811 108.933 92.5059 108.596 92.5059C108.208 92.5059 107.882 92.5833 107.618 92.7383C107.358 92.8887 107.151 93.0938 106.996 93.3535C106.846 93.6087 106.736 93.8936 106.668 94.208C106.604 94.5179 106.572 94.8346 106.572 95.1582V95.4453C106.572 95.7689 106.604 96.0879 106.668 96.4023C106.732 96.7168 106.839 97.0016 106.989 97.2568C107.144 97.512 107.352 97.7171 107.611 97.8721C107.876 98.0225 108.204 98.0977 108.596 98.0977ZM114.338 91.6035V99H113.073V91.6035H114.338ZM119.191 91.6035L115.685 95.8418H113.914L113.723 94.7344H115.172L117.653 91.6035H119.191ZM117.831 99L115.11 95.6504L115.924 94.7344L119.438 99H117.831ZM124.011 95.7461H121.584L121.57 94.7344H123.553C123.945 94.7344 124.271 94.6956 124.53 94.6182C124.795 94.5407 124.993 94.4245 125.125 94.2695C125.257 94.1146 125.323 93.9232 125.323 93.6953C125.323 93.5176 125.285 93.3626 125.207 93.2305C125.134 93.0938 125.022 92.9821 124.872 92.8955C124.722 92.8044 124.535 92.7383 124.312 92.6973C124.093 92.6517 123.835 92.6289 123.539 92.6289H121.919V99H120.654V91.6035H123.539C124.008 91.6035 124.43 91.6445 124.804 91.7266C125.182 91.8086 125.503 91.9339 125.768 92.1025C126.036 92.2666 126.242 92.4762 126.383 92.7314C126.524 92.9867 126.595 93.2874 126.595 93.6338C126.595 93.8571 126.549 94.069 126.458 94.2695C126.367 94.4701 126.232 94.6478 126.055 94.8027C125.877 94.9577 125.658 95.0853 125.398 95.1855C125.139 95.2812 124.84 95.3428 124.503 95.3701L124.011 95.7461ZM124.011 99H121.126L121.755 97.9746H124.011C124.362 97.9746 124.653 97.9313 124.886 97.8447C125.118 97.7536 125.291 97.626 125.405 97.4619C125.524 97.2933 125.583 97.0928 125.583 96.8604C125.583 96.6279 125.524 96.4297 125.405 96.2656C125.291 96.097 125.118 95.9694 124.886 95.8828C124.653 95.7917 124.362 95.7461 124.011 95.7461H122.09L122.104 94.7344H124.503L124.961 95.1172C125.367 95.1491 125.711 95.2493 125.993 95.418C126.276 95.5866 126.49 95.8008 126.636 96.0605C126.782 96.3158 126.854 96.5938 126.854 96.8945C126.854 97.2409 126.788 97.5462 126.656 97.8105C126.529 98.0749 126.342 98.2959 126.096 98.4736C125.85 98.6468 125.551 98.779 125.2 98.8701C124.849 98.9567 124.453 99 124.011 99ZM130.546 98.2344L132.604 91.6035H133.957L130.99 100.142C130.922 100.324 130.831 100.52 130.717 100.729C130.607 100.944 130.466 101.146 130.293 101.338C130.12 101.529 129.91 101.684 129.664 101.803C129.423 101.926 129.133 101.987 128.796 101.987C128.696 101.987 128.568 101.974 128.413 101.946C128.258 101.919 128.149 101.896 128.085 101.878L128.078 100.853C128.115 100.857 128.172 100.862 128.249 100.866C128.331 100.875 128.388 100.88 128.42 100.88C128.707 100.88 128.951 100.841 129.151 100.764C129.352 100.691 129.521 100.565 129.657 100.388C129.799 100.215 129.919 99.9753 130.02 99.6699L130.546 98.2344ZM129.035 91.6035L130.956 97.3457L131.284 98.6787L130.375 99.1436L127.654 91.6035H129.035ZM139.938 96.9971L143.35 91.6035H144.621V99H143.35V93.6064L139.938 99H138.681V91.6035H139.938V96.9971ZM149.789 95.3838V95.2266C149.789 94.6934 149.867 94.1989 150.021 93.7432C150.176 93.2829 150.4 92.8841 150.691 92.5469C150.983 92.2051 151.336 91.9408 151.751 91.7539C152.166 91.5625 152.631 91.4668 153.146 91.4668C153.665 91.4668 154.132 91.5625 154.547 91.7539C154.966 91.9408 155.322 92.2051 155.613 92.5469C155.91 92.8841 156.135 93.2829 156.29 93.7432C156.445 94.1989 156.522 94.6934 156.522 95.2266V95.3838C156.522 95.917 156.445 96.4115 156.29 96.8672C156.135 97.3229 155.91 97.7217 155.613 98.0635C155.322 98.4007 154.968 98.665 154.554 98.8564C154.144 99.0433 153.679 99.1367 153.159 99.1367C152.64 99.1367 152.173 99.0433 151.758 98.8564C151.343 98.665 150.988 98.4007 150.691 98.0635C150.4 97.7217 150.176 97.3229 150.021 96.8672C149.867 96.4115 149.789 95.917 149.789 95.3838ZM151.054 95.2266V95.3838C151.054 95.7529 151.097 96.1016 151.184 96.4297C151.27 96.7533 151.4 97.0404 151.573 97.291C151.751 97.5417 151.972 97.7399 152.236 97.8857C152.501 98.027 152.808 98.0977 153.159 98.0977C153.506 98.0977 153.809 98.027 154.068 97.8857C154.333 97.7399 154.551 97.5417 154.725 97.291C154.898 97.0404 155.028 96.7533 155.114 96.4297C155.205 96.1016 155.251 95.7529 155.251 95.3838V95.2266C155.251 94.862 155.205 94.5179 155.114 94.1943C155.028 93.8662 154.896 93.5768 154.718 93.3262C154.545 93.071 154.326 92.8704 154.062 92.7246C153.802 92.5788 153.496 92.5059 153.146 92.5059C152.799 92.5059 152.494 92.5788 152.229 92.7246C151.97 92.8704 151.751 93.071 151.573 93.3262C151.4 93.5768 151.27 93.8662 151.184 94.1943C151.097 94.5179 151.054 94.862 151.054 95.2266ZM162.853 88.3838H163.892C163.892 88.8304 163.823 89.1859 163.687 89.4502C163.55 89.71 163.363 89.9105 163.126 90.0518C162.894 90.193 162.629 90.3001 162.333 90.373C162.041 90.446 161.738 90.5166 161.424 90.585C161.032 90.667 160.667 90.7969 160.33 90.9746C159.997 91.1478 159.71 91.3939 159.469 91.7129C159.232 92.0319 159.056 92.4466 158.942 92.957C158.833 93.4674 158.803 94.0986 158.854 94.8506V95.4795H157.814V94.8506C157.814 94.0075 157.894 93.2715 158.054 92.6426C158.218 92.0137 158.448 91.4827 158.744 91.0498C159.04 90.6169 159.391 90.2728 159.797 90.0176C160.207 89.7624 160.658 89.5869 161.15 89.4912C161.506 89.4229 161.811 89.3499 162.066 89.2725C162.322 89.1904 162.515 89.0811 162.647 88.9443C162.784 88.8076 162.853 88.6208 162.853 88.3838ZM161.355 92.0273C161.839 92.0273 162.269 92.1117 162.647 92.2803C163.026 92.4489 163.347 92.6836 163.611 92.9844C163.876 93.2852 164.076 93.6406 164.213 94.0508C164.354 94.4564 164.425 94.8984 164.425 95.377V95.5273C164.425 96.0423 164.35 96.5208 164.199 96.9629C164.053 97.4004 163.837 97.7832 163.55 98.1113C163.267 98.4349 162.921 98.6878 162.511 98.8701C162.105 99.0524 161.643 99.1436 161.123 99.1436C160.604 99.1436 160.139 99.0524 159.729 98.8701C159.323 98.6878 158.977 98.4349 158.689 98.1113C158.402 97.7832 158.184 97.4004 158.033 96.9629C157.887 96.5208 157.814 96.0423 157.814 95.5273V95.377C157.814 95.263 157.835 95.1514 157.876 95.042C157.917 94.9326 157.967 94.821 158.026 94.707C158.09 94.5931 158.147 94.4723 158.197 94.3447C158.366 93.9346 158.596 93.554 158.888 93.2031C159.184 92.8522 159.537 92.5697 159.947 92.3555C160.362 92.1367 160.831 92.0273 161.355 92.0273ZM161.109 93.0596C160.645 93.0596 160.262 93.1667 159.961 93.3809C159.665 93.5951 159.444 93.8799 159.298 94.2354C159.152 94.5863 159.079 94.9668 159.079 95.377V95.5273C159.079 95.8737 159.12 96.2018 159.202 96.5117C159.284 96.8216 159.407 97.0973 159.571 97.3389C159.74 97.5758 159.952 97.7627 160.207 97.8994C160.467 98.0361 160.772 98.1045 161.123 98.1045C161.474 98.1045 161.777 98.0361 162.032 97.8994C162.287 97.7627 162.497 97.5758 162.661 97.3389C162.825 97.0973 162.948 96.8216 163.03 96.5117C163.112 96.2018 163.153 95.8737 163.153 95.5273V95.377C163.153 95.0671 163.112 94.7731 163.03 94.4951C162.948 94.2171 162.823 93.971 162.654 93.7568C162.49 93.5426 162.278 93.374 162.019 93.251C161.763 93.1234 161.46 93.0596 161.109 93.0596ZM170.803 91.6035V92.6494H167.228V91.6035H170.803ZM171.917 91.6035V99H170.652V91.6035H171.917ZM166.92 91.6035H168.191L168 95.1719C167.968 95.7233 167.916 96.2109 167.843 96.6348C167.774 97.054 167.679 97.4141 167.556 97.7148C167.437 98.0156 167.287 98.2617 167.104 98.4531C166.927 98.64 166.713 98.779 166.462 98.8701C166.211 98.9567 165.922 99 165.594 99H165.197V97.8857L165.471 97.8652C165.667 97.8516 165.833 97.806 165.97 97.7285C166.111 97.651 166.229 97.5371 166.325 97.3867C166.421 97.2318 166.498 97.0335 166.558 96.792C166.621 96.5505 166.669 96.2633 166.701 95.9307C166.738 95.598 166.765 95.2106 166.783 94.7686L166.92 91.6035ZM173.975 98.3301C173.975 98.1159 174.041 97.9359 174.173 97.79C174.31 97.6396 174.506 97.5645 174.761 97.5645C175.016 97.5645 175.21 97.6396 175.342 97.79C175.479 97.9359 175.547 98.1159 175.547 98.3301C175.547 98.5397 175.479 98.7174 175.342 98.8633C175.21 99.0091 175.016 99.082 174.761 99.082C174.506 99.082 174.31 99.0091 174.173 98.8633C174.041 98.7174 173.975 98.5397 173.975 98.3301Z" fill="#475569"/>
</svg>
