<svg width="25" height="17" viewBox="0 0 25 17" fill="none" xmlns="http://www.w3.org/2000/svg">
<rect width="25" height="17" rx="2" fill="white"/>
<path d="M23.2143 0H1.78571C1.31211 0 0.85791 0.179107 0.523024 0.497918C0.188137 0.81673 0 1.24913 0 1.7V15.3C0 15.7509 0.188137 16.1833 0.523024 16.5021C0.85791 16.8209 1.31211 17 1.78571 17H23.2143C23.6879 17 24.1421 16.8209 24.477 16.5021C24.8119 16.1833 25 15.7509 25 15.3V1.7C25 1.24913 24.8119 0.81673 24.477 0.497918C24.1421 0.179107 23.6879 0 23.2143 0ZM21.25 1.7L12.5 7.463L3.75 1.7H21.25ZM1.78571 15.3V2.4735L11.9911 9.197C12.1405 9.29571 12.3181 9.3486 12.5 9.3486C12.6819 9.3486 12.8595 9.29571 13.0089 9.197L23.2143 2.4735V15.3H1.78571Z" fill="#00A2FC"/>
</svg>
