<svg width="21" height="20" viewBox="0 0 21 20" fill="none" xmlns="http://www.w3.org/2000/svg">
<path d="M19.2463 20C8.58251 20.015 0.488762 11.825 0.500012 1.25375C0.500012 0.562499 1.06001 0 1.75001 0H5.05001C5.66876 0 6.19501 0.455 6.28626 1.0675C6.50389 2.53632 6.93116 3.9663 7.55501 5.31375L7.68376 5.59124C7.77024 5.77798 7.78885 5.98905 7.73636 6.18803C7.68388 6.38702 7.56359 6.56145 7.39626 6.68124C6.37376 7.41124 5.98376 8.87999 6.78001 10.025C7.78249 11.4666 9.03369 12.7183 10.475 13.7212C11.6213 14.5162 13.09 14.1262 13.8188 13.105C13.9384 12.9371 14.113 12.8164 14.3123 12.7637C14.5115 12.711 14.723 12.7295 14.91 12.8162L15.1863 12.9437C16.5338 13.5687 17.9638 13.9962 19.4325 14.2137C20.045 14.305 20.5 14.8312 20.5 15.4512V18.75C20.5 18.9142 20.4676 19.0769 20.4047 19.2286C20.3418 19.3804 20.2496 19.5182 20.1334 19.6343C20.0172 19.7504 19.8793 19.8424 19.7275 19.9052C19.5757 19.9679 19.413 20.0001 19.2488 20H19.2463Z" fill="white"/>
</svg>
