<svg width="21" height="20" viewBox="0 0 21 20" fill="none" xmlns="http://www.w3.org/2000/svg">
<path d="M20.1714 18.0942L16.3949 14.3287C17.6134 12.7764 18.2745 10.8595 18.2721 8.88603C18.2721 7.12854 17.7509 5.41052 16.7745 3.94922C15.7981 2.48792 14.4103 1.34897 12.7866 0.676412C11.1629 0.00385016 9.37617 -0.172123 7.65245 0.170746C5.92873 0.513616 4.34539 1.35993 3.10266 2.60266C1.85993 3.84539 1.01362 5.42873 0.670746 7.15245C0.327877 8.87617 0.50385 10.6629 1.17641 12.2866C1.84897 13.9103 2.98792 15.2981 4.44922 16.2745C5.91052 17.2509 7.62854 17.7721 9.38603 17.7721C11.3595 17.7745 13.2764 17.1134 14.8287 15.8949L18.5942 19.6714C18.6974 19.7755 18.8203 19.8582 18.9556 19.9146C19.091 19.971 19.2362 20 19.3828 20C19.5294 20 19.6746 19.971 19.81 19.9146C19.9453 19.8582 20.0682 19.7755 20.1714 19.6714C20.2755 19.5682 20.3582 19.4453 20.4146 19.31C20.471 19.1746 20.5 19.0294 20.5 18.8828C20.5 18.7362 20.471 18.591 20.4146 18.4556C20.3582 18.3203 20.2755 18.1974 20.1714 18.0942ZM2.72151 8.88603C2.72151 7.56791 3.11238 6.2794 3.84468 5.18342C4.57699 4.08745 5.61785 3.23324 6.83563 2.72882C8.05341 2.22439 9.39342 2.09242 10.6862 2.34957C11.979 2.60672 13.1665 3.24145 14.0986 4.1735C15.0306 5.10555 15.6653 6.29306 15.9225 7.58585C16.1796 8.87864 16.0477 10.2186 15.5432 11.4364C15.0388 12.6542 14.1846 13.6951 13.0886 14.4274C11.9927 15.1597 10.7041 15.5505 9.38603 15.5505C7.61849 15.5505 5.92334 14.8484 4.6735 13.5986C3.42366 12.3487 2.72151 10.6536 2.72151 8.88603Z" fill="#475569"/>
</svg>
