<svg width="80" height="80" viewBox="0 0 80 80" fill="none" xmlns="http://www.w3.org/2000/svg">
<g clip-path="url(#clip0_10_338)">
<path d="M19.8308 43.3335H42.8308" stroke="#EEEEEE" stroke-width="5" stroke-linecap="round" stroke-linejoin="round"/>
<path d="M20 53.3335H32.9667" stroke="#EEEEEE" stroke-width="5" stroke-linecap="round" stroke-linejoin="round"/>
<path d="M32.9767 70H16.5667C12.94 70 10 67.0167 10 63.3333V16.6667C10 12.9833 12.94 10 16.5667 10H50.1C53.7267 10 56.6667 12.9833 56.6667 16.6667V36.6667" stroke="#EEEEEE" stroke-width="5" stroke-linecap="round" stroke-linejoin="round"/>
<path d="M64.3099 42.3554L43.3333 63.332V69.9987H49.9999L70.9766 49.022C72.2799 47.7187 72.2799 45.6087 70.9766 44.3087L69.0233 42.3554C67.7233 41.0554 65.6099 41.0554 64.3099 42.3554Z" stroke="#EEEEEE" stroke-width="5" stroke-linecap="round" stroke-linejoin="round"/>
<path d="M25 30H20V20H25C27.76 20 30 22.24 30 25C30 27.76 27.76 30 25 30Z" stroke="#EEEEEE" stroke-width="5" stroke-linecap="round" stroke-linejoin="round"/>
</g>
<defs>
<clipPath id="clip0_10_338">
<rect width="80" height="80" fill="white"/>
</clipPath>
</defs>
</svg>
