<svg width="80" height="80" viewBox="0 0 80 80" fill="none" xmlns="http://www.w3.org/2000/svg">
<path d="M10.9775 20.4718L20.4708 10.9784C21.7708 9.67842 23.8808 9.67842 25.1842 10.9784L69.0242 54.8184C70.3242 56.1184 70.3242 58.2284 69.0242 59.5318L59.5308 69.0251C58.2308 70.3251 56.1208 70.3251 54.8175 69.0251L10.9775 25.1851C9.67417 23.8818 9.67417 21.7718 10.9775 20.4718V20.4718Z" stroke="#EEEEEE" stroke-width="5" stroke-linecap="round" stroke-linejoin="round"/>
<path d="M47.1029 32.9004L42.1029 37.9004" stroke="#EEEEEE" stroke-width="5" stroke-linecap="round" stroke-linejoin="round"/>
<path d="M55.7357 41.5332L52.4023 44.8665" stroke="#EEEEEE" stroke-width="5.00433" stroke-linecap="round" stroke-linejoin="round"/>
<path d="M63.6654 49.4663L58.6654 54.4663" stroke="#EEEEEE" stroke-width="5.00433" stroke-linecap="round" stroke-linejoin="round"/>
<path d="M39.1667 24.9673L35.8334 28.2673" stroke="#EEEEEE" stroke-width="5.00433" stroke-linecap="round" stroke-linejoin="round"/>
<path d="M30.5338 16.3345L25.5338 21.3345" stroke="#EEEEEE" stroke-width="5" stroke-linecap="round" stroke-linejoin="round"/>
<path d="M41.1783 26.9741L56.0517 12.1007C58.6383 9.51405 62.845 9.52738 65.4483 12.1307L67.835 14.5174C70.4383 17.1207 70.4517 21.3274 67.865 23.9141L52.9917 38.7874" stroke="#EEEEEE" stroke-width="5" stroke-linecap="round" stroke-linejoin="round"/>
<path d="M26.9714 41.1782L13.538 54.6116C13.118 55.0316 12.818 55.5582 12.668 56.1349L10.1947 65.7049C9.5547 68.1782 11.808 70.4282 14.2814 69.7816L23.8314 67.2916C24.4047 67.1416 24.928 66.8416 25.348 66.4216L38.7847 52.9849" stroke="#EEEEEE" stroke-width="5" stroke-linecap="round" stroke-linejoin="round"/>
<path d="M50.3971 17.7671L62.1971 29.5671" stroke="#EEEEEE" stroke-width="5" stroke-linecap="round" stroke-linejoin="round"/>
</svg>
