<svg width="80" height="80" viewBox="0 0 80 80" fill="none" xmlns="http://www.w3.org/2000/svg">
<g clip-path="url(#clip0_10_363)">
<path d="M33.4925 46.2297C29.5925 42.3297 26.6525 37.9631 24.6992 33.5331C24.2858 32.5964 24.5292 31.4997 25.2525 30.7764L27.9825 28.0464C30.2192 25.8097 30.2192 22.6464 28.2658 20.6931L24.3525 16.7831C21.7492 14.1797 17.5292 14.1797 14.9258 16.7831L12.7525 18.9531C10.2825 21.4231 9.25249 24.9864 9.91916 28.5197C11.5658 37.2297 16.6258 46.7664 24.7892 54.9297C32.9525 63.0931 42.4892 68.1531 51.1992 69.7997C54.7325 70.4664 58.2958 69.4364 60.7658 66.9664L62.9358 64.7964C65.5392 62.1931 65.5392 57.9731 62.9358 55.3697L59.0258 51.4597C57.0725 49.5064 53.9058 49.5064 51.9558 51.4597L48.9458 54.4731C48.2225 55.1964 47.1258 55.4397 46.1892 55.0264C41.7592 53.0697 37.3925 50.1264 33.4925 46.2297V46.2297Z" stroke="#EEEEEE" stroke-width="5" stroke-linecap="round" stroke-linejoin="round"/>
<path d="M43.067 17.2336V9.43359" stroke="#EEEEEE" stroke-width="5" stroke-linecap="round" stroke-linejoin="round"/>
<path d="M56.9668 22.7323L62.4668 17.2656" stroke="#EEEEEE" stroke-width="5" stroke-linecap="round" stroke-linejoin="round"/>
<path d="M62.5006 36.6665H70.2673" stroke="#EEEEEE" stroke-width="5" stroke-linecap="round" stroke-linejoin="round"/>
</g>
<defs>
<clipPath id="clip0_10_363">
<rect width="80" height="80" fill="white"/>
</clipPath>
</defs>
</svg>
