<svg width="80" height="80" viewBox="0 0 80 80" fill="none" xmlns="http://www.w3.org/2000/svg">
<path d="M21.2467 22.5C20.5567 22.4967 20 21.9367 20 21.2467C20 20.5567 20.56 20 21.25 20C21.94 20 22.5 20.56 22.5 21.25C22.5 21.94 21.94 22.5 21.2467 22.5Z" stroke="#EEEEEE" stroke-width="5" stroke-linecap="round" stroke-linejoin="round"/>
<path d="M21.6667 10C15.2233 10 10 15.2233 10 21.6667V63.3333C10 67.0167 12.9833 70 16.6667 70H26.6667C30.35 70 33.3333 67.0167 33.3333 63.3333V21.6667C33.3333 15.2233 28.11 10 21.6667 10Z" stroke="#EEEEEE" stroke-width="5" stroke-linecap="round" stroke-linejoin="round"/>
<path d="M29.9154 13.4157L62.2854 45.7857C64.8887 48.389 64.8887 52.609 62.2854 55.2124L55.2154 62.2824C52.6121 64.8857 48.3921 64.8857 45.7887 62.2824L33.3321 49.8324" stroke="#EEEEEE" stroke-width="5" stroke-linecap="round" stroke-linejoin="round"/>
<path d="M49.8333 33.3335H63.3333C67.0166 33.3335 70 30.3502 70 26.6668V16.6668C70 12.9835 67.0166 10.0002 63.3333 10.0002H21.6666" stroke="#EEEEEE" stroke-width="5" stroke-linecap="round" stroke-linejoin="round"/>
</svg>
