<svg width="80" height="80" viewBox="0 0 80 80" fill="none" xmlns="http://www.w3.org/2000/svg">
<g clip-path="url(#clip0_10_357)">
<path d="M23.1466 63.3332H16.8533C14.9099 63.3332 13.3333 61.7565 13.3333 59.8132V35.1865C13.3333 33.2432 14.9099 31.6665 16.8533 31.6665H23.1466C25.0899 31.6665 26.6666 33.2432 26.6666 35.1865V59.8132C26.6666 61.7565 25.0899 63.3332 23.1466 63.3332V63.3332Z" stroke="#EEEEEE" stroke-width="5" stroke-linecap="round" stroke-linejoin="round"/>
<path d="M26.6667 35.2387L38.8301 19.4021C41.0934 16.4521 45.5134 16.3788 47.8767 19.2488C48.7601 20.3188 49.2401 21.6654 49.2401 23.0521V33.9554H59.5601C61.5634 33.9554 63.4334 34.9554 64.5468 36.6187L65.6434 38.2554C66.6268 39.7254 66.9134 41.5554 66.4234 43.2521L61.8934 58.9921C61.1534 61.5621 58.8034 63.3321 56.1301 63.3321H35.1667C33.5001 63.3321 31.9067 62.6388 30.7734 61.4188L26.6667 56.9988" stroke="#EEEEEE" stroke-width="5" stroke-linecap="round" stroke-linejoin="round"/>
</g>
<defs>
<clipPath id="clip0_10_357">
<rect width="80" height="80" fill="white"/>
</clipPath>
</defs>
</svg>
