<svg width="74" height="73" viewBox="0 0 74 73" fill="none" xmlns="http://www.w3.org/2000/svg">
<path d="M66 36.2897C66 43.981 62.9447 51.3572 57.5061 56.7958C52.0675 62.2343 44.6913 65.2897 37 65.2897C29.3087 65.2897 21.9325 62.2343 16.4939 56.7958C11.0553 51.3572 8 43.981 8 36.2897C8 28.5984 11.0553 21.2221 16.4939 15.7836C21.9325 10.345 29.3087 7.28967 37 7.28967C39.755 7.28967 42.4375 7.68842 44.975 8.41342L50.6663 2.72217C46.4613 0.982173 41.8575 0.0396729 37 0.0396729C32.2396 0.0396729 27.5258 0.977307 23.1277 2.79904C18.7297 4.62077 14.7335 7.29093 11.3674 10.6571C4.56919 17.4552 0.75 26.6756 0.75 36.2897C0.75 45.9038 4.56919 55.1241 11.3674 61.9223C14.7335 65.2884 18.7297 67.9586 23.1277 69.7803C27.5258 71.602 32.2396 72.5397 37 72.5397C46.6141 72.5397 55.8344 68.7205 62.6326 61.9223C69.4308 55.1241 73.25 45.9038 73.25 36.2897M22.1737 29.3297L17.0625 34.4772L33.375 50.7897L69.625 14.5397L64.5138 9.39217L33.375 40.5309L22.1737 29.3297Z" fill="#F9F9FA"/>
</svg>
