<svg width="22" height="23" viewBox="0 0 22 23" fill="none" xmlns="http://www.w3.org/2000/svg">
<g clip-path="url(#clip0_65_7549)">
<path d="M18.15 0.616699H3.85C1.7237 0.616699 0 2.3404 0 4.4667V18.7667C0 20.893 1.7237 22.6167 3.85 22.6167H18.15C20.2763 22.6167 22 20.893 22 18.7667V4.4667C22 2.3404 20.2763 0.616699 18.15 0.616699Z" fill="#4489C8"/>
<path d="M3.3061 7.41264H5.9461C6.00129 7.41255 6.0552 7.42928 6.10065 7.4606C6.14609 7.49192 6.18091 7.53635 6.20048 7.58796C6.49266 8.34077 7.7061 11.2867 8.81641 11.5273C9.64141 11.5273 9.34923 7.60858 8.30079 7.60858C8.02579 7.60858 8.78891 7.12046 8.84048 7.09983C9.8148 6.83277 10.843 6.83277 11.8174 7.09983C12.3433 7.31983 12.4327 7.93514 12.4464 8.45764C12.4602 8.98014 11.862 11.2076 12.6492 11.4483C13.6805 11.7645 15.0074 8.52983 15.3167 7.73577C15.3368 7.6848 15.3719 7.64111 15.4173 7.61044C15.4627 7.57976 15.5163 7.56354 15.5711 7.56389H18.5102C18.5556 7.56375 18.6003 7.57486 18.6404 7.59623C18.6805 7.6176 18.7146 7.64856 18.7398 7.68635C18.765 7.72414 18.7805 7.76758 18.7848 7.81279C18.7891 7.85801 18.7821 7.90359 18.7645 7.94546C18.1591 9.32655 17.4333 10.6517 16.5955 11.9055C16.5242 12.0089 16.4908 12.1338 16.5008 12.259C16.5109 12.3842 16.5637 12.5021 16.6505 12.593C17.5305 13.5348 19.9367 16.2023 18.5617 16.2023H15.5952C15.5185 16.2025 15.4427 16.1864 15.3727 16.155C15.3028 16.1235 15.2403 16.0776 15.1895 16.0201C14.7289 15.5114 13.3883 14.0951 12.7833 14.2086C12.2814 14.3014 12.2333 15.1539 12.2573 15.7108C12.2649 15.8544 12.2159 15.9954 12.1208 16.1033C12.0257 16.2113 11.8921 16.2777 11.7486 16.2883C11.2227 16.3192 10.5042 16.333 10.4389 16.3295C8.34204 16.1955 7.1011 14.7964 5.91516 13.2358C4.6729 11.5812 3.70384 9.73826 3.04485 7.77702C3.03138 7.73552 3.02785 7.69144 3.03455 7.64832C3.04125 7.60521 3.05798 7.56427 3.0834 7.52882C3.10883 7.49336 3.14222 7.46437 3.18091 7.44419C3.21959 7.42401 3.26247 7.4132 3.3061 7.41264Z" fill="white"/>
</g>
<defs>
<clipPath id="clip0_65_7549">
<rect width="22" height="22" fill="white" transform="translate(0 0.616699)"/>
</clipPath>
</defs>
</svg>
