<svg width="27" height="34" viewBox="0 0 27 34" fill="none" xmlns="http://www.w3.org/2000/svg">
<path d="M13.4996 0C6.04376 0 0 6.08872 0 13.6C0 17.3543 1.50993 20.7536 3.952 23.2145C6.39475 25.6768 12.1496 29.24 12.4871 32.98C12.5377 33.5407 12.9407 34 13.4996 34C14.0585 34 14.4614 33.5407 14.5121 32.98C14.8495 29.24 20.6044 25.6768 23.0472 23.2145C25.4892 20.7536 26.9992 17.3543 26.9992 13.6C26.9992 6.08872 20.9554 0 13.4996 0Z" fill="url(#paint0_linear_407_5744)"/>
<path d="M13.5002 18.3599C16.1097 18.3599 18.2251 16.2287 18.2251 13.5998C18.2251 10.971 16.1097 8.83984 13.5002 8.83984C10.8908 8.83984 8.77539 10.971 8.77539 13.5998C8.77539 16.2287 10.8908 18.3599 13.5002 18.3599Z" fill="white"/>
<defs>
<linearGradient id="paint0_linear_407_5744" x1="13.4996" y1="0" x2="13.4996" y2="34" gradientUnits="userSpaceOnUse">
<stop stop-color="#FF6122"/>
<stop offset="1" stop-color="#F22411"/>
</linearGradient>
</defs>
</svg>
